<svg xmlns="http://www.w3.org/2000/svg" width="800" height="600" viewBox="0 0 800 600">
  <!-- Background -->
  <rect width="800" height="600" fill="#f8f9fa" />
  
  <!-- Python Logo -->
  <g transform="translate(200, 150) scale(0.8)">
    <path d="M 247.5,0 C 237.3,0 228.3,0.9 220.5,2.4 C 203.9,5.8 200.5,12.8 200.5,25.5 L 200.5,50 L 250.5,50 L 250.5,60 L 200.5,60 L 175.5,60 C 162.9,60 152.2,67.8 148.5,82.5 C 144.3,99.5 144.1,110.1 148.5,127.5 C 151.8,140.6 159.9,150 172.5,150 L 195.5,150 L 195.5,127.5 C 195.5,113.1 207.9,100 222.5,100 L 272.5,100 C 284.4,100 295.5,89.5 295.5,77.5 L 295.5,25.5 C 295.5,13.9 284.5,5.3 272.5,2.4 C 264.5,0.5 257.7,0 247.5,0 z M 225.5,15 C 231.3,15 236,19.7 236,25.5 C 236,31.3 231.3,36 225.5,36 C 219.7,36 215,31.3 215,25.5 C 215,19.7 219.7,15 225.5,15 z" fill="#366a96" />
    <path d="M 300.5,60 L 300.5,77.5 C 300.5,92.5 287.6,105 272.5,105 L 222.5,105 C 210.8,105 200.5,116.2 200.5,127.5 L 200.5,177.5 C 200.5,189.1 212.2,197 225.5,200 C 241.5,203.6 256.7,204.3 272.5,200 C 283.4,197 295.5,190.8 295.5,177.5 L 295.5,150 L 245.5,150 L 245.5,140 L 295.5,140 L 320.5,140 C 333.1,140 338.7,133.4 342.5,120 C 346.5,106.2 346.4,93.2 342.5,77.5 C 339.6,65.9 333.1,60 320.5,60 L 300.5,60 z M 270.5,165 C 276.3,165 281,169.7 281,175.5 C 281,181.3 276.3,186 270.5,186 C 264.7,186 260,181.3 260,175.5 C 260,169.7 264.7,165 270.5,165 z" fill="#ffc331" />
  </g>
  
  <!-- Data Science Elements -->
  <g transform="translate(450, 200)">
    <!-- Bar Chart -->
    <rect x="0" y="0" width="20" height="100" fill="#4CAF50" />
    <rect x="30" y="20" width="20" height="80" fill="#2196F3" />
    <rect x="60" y="40" width="20" height="60" fill="#FFC107" />
    <rect x="90" y="10" width="20" height="90" fill="#9C27B0" />
    
    <!-- Line Graph -->
    <polyline points="0,150 30,130 60,140 90,110" fill="none" stroke="#E91E63" stroke-width="3" />
    <circle cx="0" cy="150" r="4" fill="#E91E63" />
    <circle cx="30" cy="130" r="4" fill="#E91E63" />
    <circle cx="60" cy="140" r="4" fill="#E91E63" />
    <circle cx="90" cy="110" r="4" fill="#E91E63" />
  </g>
  
  <!-- Title -->
  <text x="400" y="450" font-family="Arial, sans-serif" font-size="32" font-weight="bold" text-anchor="middle" fill="#333333">Guide Python Data Science</text>
  <text x="400" y="490" font-family="Arial, sans-serif" font-size="18" text-anchor="middle" fill="#666666">Pandas • NumPy • Matplotlib • Scikit-learn</text>
</svg>