<?xml version="1.0" encoding="utf-8" standalone="yes"?>
<!DOCTYPE svg PUBLIC "-//W3C//DTD SVG 1.1//EN" "http://www.w3.org/Graphics/SVG/1.1/DTD/svg11.dtd">
<svg width="756" height="540" viewBox="0 0 756 540" style="fill:none;stroke:none;fill-rule:evenodd;clip-rule:evenodd;stroke-linecap:round;stroke-linejoin:round;stroke-miterlimit:1.5;" version="1.1" xmlns="http://www.w3.org/2000/svg" xmlns:xlink="http://www.w3.org/1999/xlink"><style class="text-font-style fontImports" data-font-family="Roboto">@import url('https://fonts.googleapis.com/css2?family=Roboto:wght@400;700&amp;display=block');</style><g id="items" style="isolation: isolate"><g id="blend" style="mix-blend-mode: normal"><g id="g-root-cp_1_g-1_m9ue2k12ctq0w-fill" data-item-order="-314330" transform="translate(50, 325.615478515625)"><g id="cp_1_g-1_m9ue2k12ctq0w-fill" stroke="none" fill="#e0cb15"><g><path d="M 76 141.999954C 112.4508 141.999954 142 112.450754 142 75.999954C 142 39.549154 112.4508 9.999954 76 9.999954C 39.5492 9.999954 10 39.549154 10 75.999954C 10 112.450754 39.5492 141.999954 76 141.999954ZM 81.9802 37.939054C 81.5039 38.682954 81.9916 40.031354 82.8712 40.031354L 110.65 40.031354C 111.1407 40.031354 111.5385 40.431554 111.5385 40.925154L 111.5385 71.069154C 111.5385 71.953954 110.198 72.444654 109.4584 71.965554C 108.3504 71.247754 107.0312 70.831354 105.6154 70.831354C 101.6899 70.831354 98.5077 74.032554 98.5077 77.981354C 98.5077 81.930254 101.6899 85.131354 105.6154 85.131354C 107.0312 85.131354 108.3504 84.714954 109.4584 83.997154C 110.198 83.518054 111.5385 84.008754 111.5385 84.893554L 111.5385 114.029254C 111.5385 114.522854 111.1407 114.923054 110.65 114.923054L 82.8712 114.923054C 81.9916 114.923054 81.5039 113.574654 81.9802 112.830654C 82.6937 111.716054 83.1077 110.388954 83.1077 108.964654C 83.1077 105.015854 79.9255 101.814654 76 101.814654C 72.0745 101.814654 68.8923 105.015854 68.8923 108.964654C 68.8923 110.388954 69.3063 111.716054 70.0198 112.830654C 70.4961 113.574654 70.0084 114.923054 69.1287 114.923054L 41.35 114.923054C 40.8593 114.923054 40.4615 114.522854 40.4615 114.029254L 40.4615 84.893554C 40.4615 84.008654 41.802 83.518054 42.5415 83.997154C 43.6496 84.714954 44.9687 85.131354 46.3846 85.131354C 50.3101 85.131354 53.4923 81.930254 53.4923 77.981354C 53.4923 74.032554 50.3101 70.831354 46.3846 70.831354C 44.9687 70.831354 43.6496 71.247854 42.5415 71.965654C 41.802 72.444654 40.4615 71.954054 40.4615 71.069254L 40.4615 40.925154C 40.4615 40.431554 40.8593 40.031354 41.35 40.031354L 69.1287 40.031354C 70.0084 40.031354 70.4961 38.682954 70.0198 37.939054C 69.3063 36.824354 68.8923 35.497354 68.8923 34.073054C 68.8923 30.124154 72.0745 26.923054 76 26.923054C 79.9255 26.923054 83.1077 30.124154 83.1077 34.073054C 83.1077 35.497354 82.6937 36.824354 81.9802 37.939054Z"></path></g></g></g><g id="g-root-cp_1_Subtract-with-terminator_8z0csc12ctog2-fill" data-item-order="-314323" transform="translate(113.79595947265625, 266.7958984375)"></g><g id="g-root-cp_2_g-2_3dcjg12ctp8t-fill" data-item-order="-314316" transform="translate(218, 110)"><g id="cp_2_g-2_3dcjg12ctp8t-fill" stroke="none" fill="#de8431"><g><path d="M 75.9999 141.9999C 112.4507 141.9999 141.9999 112.4507 141.9999 75.9999C 141.9999 39.5492 112.4507 10 75.9999 10C 39.5492 10 10 39.5492 10 75.9999C 10 112.4507 39.5492 141.9999 75.9999 141.9999ZM 81.9801 37.939C 81.5038 38.683 81.9916 40.0314 82.8712 40.0314L 110.6499 40.0314C 111.1406 40.0314 111.5384 40.4315 111.5384 40.9251L 111.5384 71.0691C 111.5384 71.954 110.1979 72.4446 109.4583 71.9655C 108.3503 71.2478 107.0311 70.8313 105.6153 70.8313C 101.6898 70.8313 98.5076 74.0325 98.5076 77.9813C 98.5076 81.9302 101.6898 85.1313 105.6153 85.1313C 107.0311 85.1313 108.3503 84.7149 109.4583 83.9971C 110.1979 83.5181 111.5384 84.0087 111.5384 84.8936L 111.5384 114.0292C 111.5384 114.5228 111.1406 114.923 110.6499 114.923L 82.8712 114.923C 81.9916 114.923 81.5038 113.5746 81.9801 112.8306C 82.6936 111.716 83.1076 110.3889 83.1076 108.9646C 83.1076 105.0158 79.9254 101.8146 75.9999 101.8146C 72.0745 101.8146 68.8922 105.0158 68.8922 108.9646C 68.8922 110.3889 69.3062 111.716 70.0198 112.8306C 70.496 113.5746 70.0083 114.923 69.1287 114.923L 41.35 114.923C 40.8593 114.923 40.4615 114.5228 40.4615 114.0292L 40.4615 84.8935C 40.4615 84.0086 41.8019 83.518 42.5415 83.9971C 43.6495 84.7149 44.9687 85.1313 46.3846 85.1313C 50.3101 85.1313 53.4923 81.9302 53.4923 77.9813C 53.4923 74.0325 50.3101 70.8313 46.3846 70.8313C 44.9687 70.8313 43.6495 71.2478 42.5415 71.9656C 41.8019 72.4447 40.4615 71.954 40.4615 71.0692L 40.4615 40.9251C 40.4615 40.4315 40.8593 40.0314 41.35 40.0314L 69.1287 40.0314C 70.0083 40.0314 70.496 38.683 70.0198 37.939C 69.3062 36.8244 68.8922 35.4974 68.8922 34.0731C 68.8922 30.1242 72.0745 26.9231 75.9999 26.9231C 79.9254 26.9231 83.1076 30.1242 83.1076 34.0731C 83.1076 35.4974 82.6936 36.8244 81.9801 37.939Z"></path></g></g></g><g id="g-root-cp_2_Subtract-with-terminator_1_1ltnd8c12ctngv-fill" data-item-order="-314309" transform="translate(281.7969055175781, 241.79736328125)"></g><g id="g-root-cp_3_g-3_1hdtv3w12cto95-fill" data-item-order="-314284" transform="translate(386, 325.614990234375)"><g id="cp_3_g-3_1hdtv3w12cto95-fill" stroke="none" fill="#e55753"><g><path d="M 76.0001 142.000009C 112.4509 142.000009 142.0001 112.450809 142.0001 76.000009C 142.0001 39.549109 112.4509 9.999909 76.0001 9.999909C 39.5492 9.999909 10 39.549109 10 76.000009C 10 112.450809 39.5492 142.000009 76.0001 142.000009ZM 81.9802 37.939009C 81.504 38.682909 81.9917 40.031309 82.8713 40.031309L 110.6501 40.031309C 111.1408 40.031309 111.5386 40.431509 111.5386 40.925109L 111.5386 71.069109C 111.5386 71.954009 110.1981 72.444609 109.4585 71.965609C 108.3505 71.247809 107.0313 70.831409 105.6155 70.831409C 101.69 70.831409 98.5078 74.032509 98.5078 77.981409C 98.5078 81.930209 101.69 85.131409 105.6155 85.131409C 107.0313 85.131409 108.3505 84.714909 109.4585 83.997209C 110.1981 83.518109 111.5386 84.008709 111.5386 84.893609L 111.5386 114.029309C 111.5386 114.522909 111.1408 114.923109 110.6501 114.923109L 82.8713 114.923109C 81.9917 114.923109 81.504 113.574709 81.9802 112.830709C 82.6938 111.716109 83.1078 110.389009 83.1078 108.964709C 83.1078 105.015909 79.9255 101.814709 76.0001 101.814709C 72.0746 101.814709 68.8924 105.015909 68.8924 108.964709C 68.8924 110.389009 69.3064 111.716109 70.0199 112.830709C 70.4961 113.574709 70.0084 114.923109 69.1288 114.923109L 41.35 114.923109C 40.8593 114.923109 40.4616 114.522909 40.4616 114.029309L 40.4616 84.893509C 40.4616 84.008709 41.802 83.518109 42.5415 83.997109C 43.6496 84.714909 44.9688 85.131409 46.3846 85.131409C 50.3101 85.131409 53.4923 81.930209 53.4923 77.981409C 53.4923 74.032509 50.3101 70.831409 46.3846 70.831409C 44.9688 70.831409 43.6496 71.247809 42.5415 71.965609C 41.802 72.444709 40.4616 71.954109 40.4616 71.069209L 40.4616 40.925109C 40.4616 40.431509 40.8593 40.031309 41.35 40.031309L 69.1288 40.031309C 70.0084 40.031309 70.4961 38.682909 70.0199 37.939009C 69.3064 36.824309 68.8924 35.497309 68.8924 34.073009C 68.8924 30.124109 72.0746 26.923009 76.0001 26.923009C 79.9255 26.923009 83.1078 30.124109 83.1078 34.073009C 83.1078 35.497309 82.6938 36.824309 81.9802 37.939009Z"></path></g></g></g><g id="g-root-cp_3_Subtract-with-terminator_2_1cy0czg12ctp1f-fill" data-item-order="-314277" transform="translate(449.79681396484375, 242.796875)"></g><g id="g-root-cp_4_g-4_142dcqk12ctpu6-fill" data-item-order="-314268" transform="translate(554, 110)"><g id="cp_4_g-4_142dcqk12ctpu6-fill" stroke="none" fill="#de58a9"><g><path d="M 76 142.0001C 112.4508 142.0001 142.0001 112.4508 142.0001 76C 142.0001 39.5492 112.4508 10 76 10C 39.5492 10 10 39.5492 10 76C 10 112.4508 39.5492 142.0001 76 142.0001ZM 81.9802 37.9391C 81.5039 38.683 81.9917 40.0314 82.8713 40.0314L 110.65 40.0314C 111.1407 40.0314 111.5385 40.4316 111.5385 40.9252L 111.5385 71.0692C 111.5385 71.9541 110.198 72.4447 109.4585 71.9656C 108.3505 71.2479 107.0313 70.8314 105.6154 70.8314C 101.6899 70.8314 98.5077 74.0326 98.5077 77.9814C 98.5077 81.9303 101.6899 85.1314 105.6154 85.1314C 107.0313 85.1314 108.3505 84.715 109.4585 83.9972C 110.198 83.5182 111.5385 84.0088 111.5385 84.8937L 111.5385 114.0294C 111.5385 114.523 111.1407 114.9231 110.65 114.9231L 82.8713 114.9231C 81.9917 114.9231 81.5039 113.5747 81.9802 112.8308C 82.6937 111.7161 83.1077 110.3891 83.1077 108.9648C 83.1077 105.0159 79.9255 101.8148 76 101.8148C 72.0745 101.8148 68.8923 105.0159 68.8923 108.9648C 68.8923 110.3891 69.3063 111.7161 70.0199 112.8308C 70.4961 113.5747 70.0084 114.9231 69.1288 114.9231L 41.35 114.9231C 40.8593 114.9231 40.4616 114.523 40.4616 114.0294L 40.4616 84.8936C 40.4616 84.0088 41.802 83.5181 42.5415 83.9972C 43.6496 84.715 44.9688 85.1314 46.3846 85.1314C 50.3101 85.1314 53.4923 81.9303 53.4923 77.9814C 53.4923 74.0326 50.3101 70.8314 46.3846 70.8314C 44.9688 70.8314 43.6496 71.2479 42.5415 71.9657C 41.802 72.4448 40.4616 71.9541 40.4616 71.0693L 40.4616 40.9252C 40.4616 40.4316 40.8593 40.0314 41.35 40.0314L 69.1288 40.0314C 70.0084 40.0314 70.4961 38.683 70.0199 37.9391C 69.3063 36.8244 68.8923 35.4974 68.8923 34.0731C 68.8923 30.1242 72.0745 26.9231 76 26.9231C 79.9255 26.9231 83.1077 30.1242 83.1077 34.0731C 83.1077 35.4974 82.6937 36.8244 81.9802 37.9391Z"></path></g></g></g><g id="g-root-cp_4_Subtract-with-terminator_3_v7ctks12cto8w-fill" data-item-order="-314261" transform="translate(617.7968139648438, 241.796875)"></g><g id="g-root-tx_comptenc_mbptbw12ctp1m-fill" data-item-order="0" transform="translate(254, 38)"><g id="tx_comptenc_mbptbw12ctp1m-fill" stroke="none" fill="#484848"><g><text style="font: 20px Roboto, sans-serif; white-space: pre;" font-size="20px" font-family="Roboto, sans-serif"><tspan x="15.39" y="34" dominant-baseline="ideographic">Compétences et Valeurs</tspan></text></g></g></g><g id="g-root-tx_pluridis_90vs1o12ctngr-fill" data-item-order="0" transform="translate(32, 110)"><g id="tx_pluridis_90vs1o12ctngr-fill" stroke="none" fill="#e0cb15"><g><text style="font: bold 20px Roboto, sans-serif; white-space: pre;" font-weight="bold" font-size="20px" font-family="Roboto, sans-serif"><tspan x="14.76" y="34" dominant-baseline="ideographic">Pluridisciplinarité</tspan></text></g></g></g><g id="g-root-tx_humanit_v8lrr012cv3sx-fill" data-item-order="0" transform="translate(404, 110)"><g id="tx_humanit_v8lrr012cv3sx-fill" stroke="none" fill="#e55753"><g><text style="font: bold 20px Roboto, sans-serif; white-space: pre;" font-weight="bold" font-size="20px" font-family="Roboto, sans-serif"><tspan x="14.29" y="34" dominant-baseline="ideographic">Humanité</tspan></text></g></g></g><g id="g-root-tx_expertis_1uqjbng12ctouk-fill" data-item-order="0" transform="translate(38, 146)"><g id="tx_expertis_1uqjbng12ctouk-fill" stroke="none" fill="#484848"><g><text style="font: 15px Roboto, sans-serif; white-space: pre;" font-size="15px" font-family="Roboto, sans-serif"><tspan x="45.12" y="31" dominant-baseline="ideographic">Expertise en </tspan><tspan x="48.62" y="49" dominant-baseline="ideographic">optronique, </tspan><tspan x="15.34" y="67" dominant-baseline="ideographic">informatique, gestion </tspan><tspan x="41.21" y="85" dominant-baseline="ideographic">commerciale, </tspan><tspan x="32.77" y="103" dominant-baseline="ideographic">développement.</tspan></text></g></g></g><g id="g-root-ic_idea_1ha30l812cv4em-fill" data-item-order="0" transform="translate(266, 158)"></g><g id="g-root-tx_lhumaina_hxrqgs12cv282-fill" data-item-order="0" transform="translate(374, 146)"><g id="tx_lhumaina_hxrqgs12cv282-fill" stroke="none" fill="#484848"><g><text style="font: 15px Roboto, sans-serif; white-space: pre;" font-size="15px" font-family="Roboto, sans-serif"><tspan x="13.41" y="28" dominant-baseline="ideographic">L'humain au centre de </tspan><tspan x="33.41" y="46" dominant-baseline="ideographic">chaque solution </tspan><tspan x="30.88" y="64" dominant-baseline="ideographic">technologique et </tspan><tspan x="58.31" y="82" dominant-baseline="ideographic">créative.</tspan></text></g></g></g><g id="g-root-ic_cham_1q6yz0c12cwj5w-fill" data-item-order="0" transform="translate(602, 158)"></g><g id="g-root-tx_crativit_1qaptj012cv30n-fill" data-item-order="0" transform="translate(236, 350)"><g id="tx_crativit_1qaptj012cv30n-fill" stroke="none" fill="#de8431"><g><text style="font: bold 20px Roboto, sans-serif; white-space: pre;" font-weight="bold" font-size="20px" font-family="Roboto, sans-serif"><tspan x="14.61" y="34" dominant-baseline="ideographic">Créativité</tspan></text></g></g></g><g id="g-root-ic_user_1hf2ta412ctqfh-fill" data-item-order="0" transform="translate(98, 374)"></g><g id="g-root-tx_adaptabi_1qbyrp812cwikl-fill" data-item-order="0" transform="translate(560, 362)"><g id="tx_adaptabi_1qbyrp812cwikl-fill" stroke="none" fill="#de58a9"><g><text style="font: bold 20px Roboto, sans-serif; white-space: pre;" font-weight="bold" font-size="20px" font-family="Roboto, sans-serif"><tspan x="15.59" y="34" dominant-baseline="ideographic">Adaptabilité</tspan></text></g></g></g><g id="g-root-tx_approche_18k2a4c12cv280-fill" data-item-order="0" transform="translate(206, 386)"><g id="tx_approche_18k2a4c12cv280-fill" stroke="none" fill="#484848"><g><text style="font: 15px Roboto, sans-serif; white-space: pre;" font-size="15px" font-family="Roboto, sans-serif"><tspan x="19.63" y="28" dominant-baseline="ideographic">Approche innovante </tspan><tspan x="15.92" y="46" dominant-baseline="ideographic">des défis techniques, </tspan><tspan x="28.8" y="64" dominant-baseline="ideographic">design graphique </tspan><tspan x="41.42" y="82" dominant-baseline="ideographic">personnalisé.</tspan></text></g></g></g><g id="g-root-ic_pick_4mb83g12cv3sz-fill" data-item-order="0" transform="translate(434, 374)"></g><g id="g-root-tx_capacita_145hq6412cwhse-fill" data-item-order="0" transform="translate(542, 398)"><g id="tx_capacita_145hq6412cwhse-fill" stroke="none" fill="#484848"><g><text style="font: 15px Roboto, sans-serif; white-space: pre;" font-size="15px" font-family="Roboto, sans-serif"><tspan x="15.13" y="31" dominant-baseline="ideographic">Capacité à apprendre </tspan><tspan x="36.2" y="49" dominant-baseline="ideographic">et évoluer avec </tspan><tspan x="38.61" y="67" dominant-baseline="ideographic">chaque projet.</tspan></text></g></g></g><g id="g-root-cp_1_g-1_m9ue2k12ctq0w-stroke" data-item-order="-314330" transform="translate(50, 325.615478515625)"><g id="cp_1_g-1_m9ue2k12ctq0w-stroke" fill="none" stroke-linecap="round" stroke-linejoin="round" stroke-miterlimit="4" stroke="#ffffff" stroke-width="2"><g><path d="M 76 141.999954C 112.4508 141.999954 142 112.450754 142 75.999954C 142 39.549154 112.4508 9.999954 76 9.999954C 39.5492 9.999954 10 39.549154 10 75.999954C 10 112.450754 39.5492 141.999954 76 141.999954ZM 81.9802 37.939054C 81.5039 38.682954 81.9916 40.031354 82.8712 40.031354L 110.65 40.031354C 111.1407 40.031354 111.5385 40.431554 111.5385 40.925154L 111.5385 71.069154C 111.5385 71.953954 110.198 72.444654 109.4584 71.965554C 108.3504 71.247754 107.0312 70.831354 105.6154 70.831354C 101.6899 70.831354 98.5077 74.032554 98.5077 77.981354C 98.5077 81.930254 101.6899 85.131354 105.6154 85.131354C 107.0312 85.131354 108.3504 84.714954 109.4584 83.997154C 110.198 83.518054 111.5385 84.008754 111.5385 84.893554L 111.5385 114.029254C 111.5385 114.522854 111.1407 114.923054 110.65 114.923054L 82.8712 114.923054C 81.9916 114.923054 81.5039 113.574654 81.9802 112.830654C 82.6937 111.716054 83.1077 110.388954 83.1077 108.964654C 83.1077 105.015854 79.9255 101.814654 76 101.814654C 72.0745 101.814654 68.8923 105.015854 68.8923 108.964654C 68.8923 110.388954 69.3063 111.716054 70.0198 112.830654C 70.4961 113.574654 70.0084 114.923054 69.1287 114.923054L 41.35 114.923054C 40.8593 114.923054 40.4615 114.522854 40.4615 114.029254L 40.4615 84.893554C 40.4615 84.008654 41.802 83.518054 42.5415 83.997154C 43.6496 84.714954 44.9687 85.131354 46.3846 85.131354C 50.3101 85.131354 53.4923 81.930254 53.4923 77.981354C 53.4923 74.032554 50.3101 70.831354 46.3846 70.831354C 44.9687 70.831354 43.6496 71.247854 42.5415 71.965654C 41.802 72.444654 40.4615 71.954054 40.4615 71.069254L 40.4615 40.925154C 40.4615 40.431554 40.8593 40.031354 41.35 40.031354L 69.1287 40.031354C 70.0084 40.031354 70.4961 38.682954 70.0198 37.939054C 69.3063 36.824354 68.8923 35.497354 68.8923 34.073054C 68.8923 30.124154 72.0745 26.923054 76 26.923054C 79.9255 26.923054 83.1077 30.124154 83.1077 34.073054C 83.1077 35.497354 82.6937 36.824354 81.9802 37.939054Z"></path></g></g></g><g id="g-root-cp_1_Subtract-with-terminator_8z0csc12ctog2-stroke" data-item-order="-314323" transform="translate(113.79595947265625, 266.7958984375)"><g id="cp_1_Subtract-with-terminator_8z0csc12ctog2-stroke" fill="none" stroke-linecap="round" stroke-linejoin="round" stroke-miterlimit="4" stroke="#ffffff" stroke-width="2"><g><path d="M 12.387918 14.775202L 12.387918 68.704075"></path></g></g><g id="cp_1_Subtract-with-terminator_8z0csc12ctog2-stroke" fill="none" stroke-linecap="round" stroke-linejoin="round" stroke-miterlimit="4" stroke="#ffffff" stroke-width="2"><g><path d="M 10.000002 12.387858C 10.000002 13.705658 11.069902 14.775558 12.387802 14.775558C 13.705602 14.775558 14.775502 13.705658 14.775502 12.387858C 14.775502 11.069958 13.705602 10.000058 12.387802 10.000058C 11.069902 10.000058 10.000002 11.069958 10.000002 12.387858Z"></path></g></g></g><g id="g-root-cp_2_g-2_3dcjg12ctp8t-stroke" data-item-order="-314316" transform="translate(218, 110)"><g id="cp_2_g-2_3dcjg12ctp8t-stroke" fill="none" stroke-linecap="round" stroke-linejoin="round" stroke-miterlimit="4" stroke="#ffffff" stroke-width="2"><g><path d="M 75.9999 141.9999C 112.4507 141.9999 141.9999 112.4507 141.9999 75.9999C 141.9999 39.5492 112.4507 10 75.9999 10C 39.5492 10 10 39.5492 10 75.9999C 10 112.4507 39.5492 141.9999 75.9999 141.9999ZM 81.9801 37.939C 81.5038 38.683 81.9916 40.0314 82.8712 40.0314L 110.6499 40.0314C 111.1406 40.0314 111.5384 40.4315 111.5384 40.9251L 111.5384 71.0691C 111.5384 71.954 110.1979 72.4446 109.4583 71.9655C 108.3503 71.2478 107.0311 70.8313 105.6153 70.8313C 101.6898 70.8313 98.5076 74.0325 98.5076 77.9813C 98.5076 81.9302 101.6898 85.1313 105.6153 85.1313C 107.0311 85.1313 108.3503 84.7149 109.4583 83.9971C 110.1979 83.5181 111.5384 84.0087 111.5384 84.8936L 111.5384 114.0292C 111.5384 114.5228 111.1406 114.923 110.6499 114.923L 82.8712 114.923C 81.9916 114.923 81.5038 113.5746 81.9801 112.8306C 82.6936 111.716 83.1076 110.3889 83.1076 108.9646C 83.1076 105.0158 79.9254 101.8146 75.9999 101.8146C 72.0745 101.8146 68.8922 105.0158 68.8922 108.9646C 68.8922 110.3889 69.3062 111.716 70.0198 112.8306C 70.496 113.5746 70.0083 114.923 69.1287 114.923L 41.35 114.923C 40.8593 114.923 40.4615 114.5228 40.4615 114.0292L 40.4615 84.8935C 40.4615 84.0086 41.8019 83.518 42.5415 83.9971C 43.6495 84.7149 44.9687 85.1313 46.3846 85.1313C 50.3101 85.1313 53.4923 81.9302 53.4923 77.9813C 53.4923 74.0325 50.3101 70.8313 46.3846 70.8313C 44.9687 70.8313 43.6495 71.2478 42.5415 71.9656C 41.8019 72.4447 40.4615 71.954 40.4615 71.0692L 40.4615 40.9251C 40.4615 40.4315 40.8593 40.0314 41.35 40.0314L 69.1287 40.0314C 70.0083 40.0314 70.496 38.683 70.0198 37.939C 69.3062 36.8244 68.8922 35.4974 68.8922 34.0731C 68.8922 30.1242 72.0745 26.9231 75.9999 26.9231C 79.9254 26.9231 83.1076 30.1242 83.1076 34.0731C 83.1076 35.4974 82.6936 36.8244 81.9801 37.939Z"></path></g></g></g><g id="g-root-cp_2_Subtract-with-terminator_1_1ltnd8c12ctngv-stroke" data-item-order="-314309" transform="translate(281.7969055175781, 241.79736328125)"><g id="cp_2_Subtract-with-terminator_1_1ltnd8c12ctngv-stroke" fill="none" stroke-linecap="round" stroke-linejoin="round" stroke-miterlimit="4" stroke="#de8431" stroke-width="2"><g><path d="M 12.390995 89.202652L 12.390933 9.999905M 10.00001 91.593345C 10.00001 92.912845 11.07131 93.984145 12.39081 93.984145C 13.71031 93.984145 14.78161 92.912845 14.78161 91.593345C 14.78161 90.273845 13.71031 89.202545 12.39081 89.202545C 11.07131 89.202546 10.00001 90.273845 10.00001 91.593345Z"></path></g></g></g><g id="g-root-cp_3_g-3_1hdtv3w12cto95-stroke" data-item-order="-314284" transform="translate(386, 325.614990234375)"><g id="cp_3_g-3_1hdtv3w12cto95-stroke" fill="none" stroke-linecap="round" stroke-linejoin="round" stroke-miterlimit="4" stroke="#ffffff" stroke-width="2"><g><path d="M 76.0001 142.000009C 112.4509 142.000009 142.0001 112.450809 142.0001 76.000009C 142.0001 39.549109 112.4509 9.999909 76.0001 9.999909C 39.5492 9.999909 10 39.549109 10 76.000009C 10 112.450809 39.5492 142.000009 76.0001 142.000009ZM 81.9802 37.939009C 81.504 38.682909 81.9917 40.031309 82.8713 40.031309L 110.6501 40.031309C 111.1408 40.031309 111.5386 40.431509 111.5386 40.925109L 111.5386 71.069109C 111.5386 71.954009 110.1981 72.444609 109.4585 71.965609C 108.3505 71.247809 107.0313 70.831409 105.6155 70.831409C 101.69 70.831409 98.5078 74.032509 98.5078 77.981409C 98.5078 81.930209 101.69 85.131409 105.6155 85.131409C 107.0313 85.131409 108.3505 84.714909 109.4585 83.997209C 110.1981 83.518109 111.5386 84.008709 111.5386 84.893609L 111.5386 114.029309C 111.5386 114.522909 111.1408 114.923109 110.6501 114.923109L 82.8713 114.923109C 81.9917 114.923109 81.504 113.574709 81.9802 112.830709C 82.6938 111.716109 83.1078 110.389009 83.1078 108.964709C 83.1078 105.015909 79.9255 101.814709 76.0001 101.814709C 72.0746 101.814709 68.8924 105.015909 68.8924 108.964709C 68.8924 110.389009 69.3064 111.716109 70.0199 112.830709C 70.4961 113.574709 70.0084 114.923109 69.1288 114.923109L 41.35 114.923109C 40.8593 114.923109 40.4616 114.522909 40.4616 114.029309L 40.4616 84.893509C 40.4616 84.008709 41.802 83.518109 42.5415 83.997109C 43.6496 84.714909 44.9688 85.131409 46.3846 85.131409C 50.3101 85.131409 53.4923 81.930209 53.4923 77.981409C 53.4923 74.032509 50.3101 70.831409 46.3846 70.831409C 44.9688 70.831409 43.6496 71.247809 42.5415 71.965609C 41.802 72.444709 40.4616 71.954109 40.4616 71.069209L 40.4616 40.925109C 40.4616 40.431509 40.8593 40.031309 41.35 40.031309L 69.1288 40.031309C 70.0084 40.031309 70.4961 38.682909 70.0199 37.939009C 69.3064 36.824309 68.8924 35.497309 68.8924 34.073009C 68.8924 30.124109 72.0746 26.923009 76.0001 26.923009C 79.9255 26.923009 83.1078 30.124109 83.1078 34.073009C 83.1078 35.497309 82.6938 36.824309 81.9802 37.939009Z"></path></g></g></g><g id="g-root-cp_3_Subtract-with-terminator_2_1cy0czg12ctp1f-stroke" data-item-order="-314277" transform="translate(449.79681396484375, 242.796875)"><g id="cp_3_Subtract-with-terminator_2_1cy0czg12ctp1f-stroke" fill="none" stroke-linecap="round" stroke-linejoin="round" stroke-miterlimit="4" stroke="#ffffff" stroke-width="2"><g><path d="M 12.391099 14.703256L 12.391099 92.703262"></path></g></g><g id="cp_3_Subtract-with-terminator_2_1cy0czg12ctp1f-stroke" fill="none" stroke-linecap="round" stroke-linejoin="round" stroke-miterlimit="4" stroke="#ffffff" stroke-width="2"><g><path d="M 9.99999 12.390539C 9.99999 13.710039 11.07119 14.781239 12.39059 14.781239C 13.71009 14.781239 14.78129 13.710039 14.78129 12.390539C 14.78129 11.071139 13.71009 9.999939 12.39059 9.999939C 11.07119 9.999939 9.99999 11.071139 9.99999 12.390539Z"></path></g></g></g><g id="g-root-cp_4_g-4_142dcqk12ctpu6-stroke" data-item-order="-314268" transform="translate(554, 110)"><g id="cp_4_g-4_142dcqk12ctpu6-stroke" fill="none" stroke-linecap="round" stroke-linejoin="round" stroke-miterlimit="4" stroke="#ffffff" stroke-width="2"><g><path d="M 76 142.0001C 112.4508 142.0001 142.0001 112.4508 142.0001 76C 142.0001 39.5492 112.4508 10 76 10C 39.5492 10 10 39.5492 10 76C 10 112.4508 39.5492 142.0001 76 142.0001ZM 81.9802 37.9391C 81.5039 38.683 81.9917 40.0314 82.8713 40.0314L 110.65 40.0314C 111.1407 40.0314 111.5385 40.4316 111.5385 40.9252L 111.5385 71.0692C 111.5385 71.9541 110.198 72.4447 109.4585 71.9656C 108.3505 71.2479 107.0313 70.8314 105.6154 70.8314C 101.6899 70.8314 98.5077 74.0326 98.5077 77.9814C 98.5077 81.9303 101.6899 85.1314 105.6154 85.1314C 107.0313 85.1314 108.3505 84.715 109.4585 83.9972C 110.198 83.5182 111.5385 84.0088 111.5385 84.8937L 111.5385 114.0294C 111.5385 114.523 111.1407 114.9231 110.65 114.9231L 82.8713 114.9231C 81.9917 114.9231 81.5039 113.5747 81.9802 112.8308C 82.6937 111.7161 83.1077 110.3891 83.1077 108.9648C 83.1077 105.0159 79.9255 101.8148 76 101.8148C 72.0745 101.8148 68.8923 105.0159 68.8923 108.9648C 68.8923 110.3891 69.3063 111.7161 70.0199 112.8308C 70.4961 113.5747 70.0084 114.9231 69.1288 114.9231L 41.35 114.9231C 40.8593 114.9231 40.4616 114.523 40.4616 114.0294L 40.4616 84.8936C 40.4616 84.0088 41.802 83.5181 42.5415 83.9972C 43.6496 84.715 44.9688 85.1314 46.3846 85.1314C 50.3101 85.1314 53.4923 81.9303 53.4923 77.9814C 53.4923 74.0326 50.3101 70.8314 46.3846 70.8314C 44.9688 70.8314 43.6496 71.2479 42.5415 71.9657C 41.802 72.4448 40.4616 71.9541 40.4616 71.0693L 40.4616 40.9252C 40.4616 40.4316 40.8593 40.0314 41.35 40.0314L 69.1288 40.0314C 70.0084 40.0314 70.4961 38.683 70.0199 37.9391C 69.3063 36.8244 68.8923 35.4974 68.8923 34.0731C 68.8923 30.1242 72.0745 26.9231 76 26.9231C 79.9255 26.9231 83.1077 30.1242 83.1077 34.0731C 83.1077 35.4974 82.6937 36.8244 81.9802 37.9391Z"></path></g></g></g><g id="g-root-cp_4_Subtract-with-terminator_3_v7ctks12cto8w-stroke" data-item-order="-314261" transform="translate(617.7968139648438, 241.796875)"><g id="cp_4_Subtract-with-terminator_3_v7ctks12cto8w-stroke" fill="none" stroke-linecap="round" stroke-linejoin="round" stroke-miterlimit="4" stroke="#de58a9" stroke-width="2"><g><path d="M 12.391066 101.203163L 12.390923 10.000096M 10.000023 103.594123C 10.000023 104.913623 11.071323 105.984823 12.390823 105.984823C 13.710323 105.984823 14.781523 104.913623 14.781523 103.594123C 14.781523 102.274623 13.710323 101.203323 12.390823 101.203323C 11.071323 101.203323 10.000023 102.274623 10.000023 103.594123Z"></path></g></g></g><g id="g-root-tx_comptenc_mbptbw12ctp1m-stroke" data-item-order="0" transform="translate(254, 38)"></g><g id="g-root-tx_pluridis_90vs1o12ctngr-stroke" data-item-order="0" transform="translate(32, 110)"></g><g id="g-root-tx_humanit_v8lrr012cv3sx-stroke" data-item-order="0" transform="translate(404, 110)"></g><g id="g-root-tx_expertis_1uqjbng12ctouk-stroke" data-item-order="0" transform="translate(38, 146)"></g><g id="g-root-ic_idea_1ha30l812cv4em-stroke" data-item-order="0" transform="translate(266, 158)"><g id="ic_idea_1ha30l812cv4em-stroke" fill="none" stroke-linecap="round" stroke-linejoin="round" stroke-miterlimit="4" stroke="#de8431" stroke-width="2"><g><path d="M 44.5 45.25L 44.5 43.75C 44.518143 42.565453 43.958523 41.44622 43.000004 40.750004C 40.997501 39.2215 36.595001 36.25 28 36.25C 19.405001 36.25 15.002501 39.2215 13 40.75C 12.041479 41.44622 11.481862 42.565453 11.5 43.750004L 11.5 45.25M 28 45.25L 35.983002 37.266998M 28 45.25L 20.017 37.266998M 30.25 43L 28 36.25L 25.75 43M 18.499001 37.751499L 16.75 43L 21.25 45.25M 37.500999 37.751499L 39.25 43L 34.75 45.25M 31 33.25L 25 33.25M 28 10.75L 28 12.25M 40 21.25L 38.5 21.25M 38.5 13.75L 37 15.25M 16 21.25L 17.5 21.25M 17.5 13.75L 19 15.25M 38.5 28.75L 37 27.25M 17.5 28.75L 19 27.25M 34.75 22C 34.764153 18.667034 32.343483 15.822676 29.051144 15.303675C 25.758804 14.784674 22.580505 16.746418 21.568642 19.922104C 20.556778 23.097792 22.014297 26.536638 25 28.018L 25 29.5C 25 29.914213 25.335787 30.25 25.75 30.25L 30.25 30.25C 30.664213 30.25 31 29.914213 31 29.5L 31 28.018C 33.291016 26.886471 34.743698 24.555202 34.75 22Z"></path></g></g></g><g id="g-root-tx_lhumaina_hxrqgs12cv282-stroke" data-item-order="0" transform="translate(374, 146)"></g><g id="g-root-ic_cham_1q6yz0c12cwj5w-stroke" data-item-order="0" transform="translate(602, 158)"><g id="ic_cham_1q6yz0c12cwj5w-stroke" fill="none" stroke-linecap="round" stroke-linejoin="round" stroke-miterlimit="4" stroke="#de58a9" stroke-width="2"><g><path d="M 19.375 19C 21.238962 19 22.75 20.51104 22.75 22.375M 16 22.375C 16 20.51104 17.51104 19 19.375 19M 19.375 25.75C 17.51104 25.75 16 24.23896 16 22.375M 22.75 22.375C 22.75 24.23896 21.238962 25.75 19.375 25.75M 19.375 22C 19.582108 22 19.75 22.167892 19.75 22.375M 19 22.375C 19 22.167892 19.167892 22 19.375 22M 19.375 22.75C 19.167892 22.75 19 22.582108 19 22.375M 19.75 22.375C 19.75 22.582108 19.582108 22.75 19.375 22.75M 24.757 18.235001C 27.621674 16.831537 30.839878 16.314495 34 16.75C 42.2155 17.5 44.5 23.5 44.5 29.5C 44.5 35.5 42.25 40 37.75 40C 33.25 40 31.925499 37.051003 32.5 34.75C 32.793999 33.479107 33.775444 32.480186 35.040951 32.163807C 36.306461 31.847431 37.642525 32.266975 38.5 33.25C 40 34.75 38.5 37 37 36.25M 21.226 16.972C 21.018404 16.623672 20.775091 16.297915 20.5 16C 18.571541 16.235115 16.750227 17.01568 15.25 18.25C 12.927151 20.373472 11.572523 23.353651 11.5 26.499998C 12.721292 27.711227 14.298242 28.499702 16 28.75C 20.5 29.5 22.75 28 22.75 28L 19.75 33.25L 23.5 33.25C 25.75 33.25 26.791 30.418001 28 28C 29.5 25 27.25 24.25 27.25 24.25M 38.5 24.25C 38.5 24.25 40.75 25 39.25 28C 38.554947 29.481535 37.729179 30.898144 36.782501 32.233002M 29.5 33.25L 11.5 33.25M 27.633999 28.75L 34 28.75L 33.25 30.25"></path></g></g></g><g id="g-root-tx_crativit_1qaptj012cv30n-stroke" data-item-order="0" transform="translate(236, 350)"></g><g id="g-root-ic_user_1hf2ta412ctqfh-stroke" data-item-order="0" transform="translate(98, 374)"><g id="ic_user_1hf2ta412ctqfh-stroke" fill="none" stroke-linecap="round" stroke-linejoin="round" stroke-miterlimit="4" stroke="#e0cb15" stroke-width="2"><g><path d="M 26.5 28.75C 21.529438 28.75 17.5 24.720562 17.5 19.75C 17.5 14.779438 21.529438 10.75 26.5 10.75ZM 12.25 45.25C 12.25 37.379944 18.629942 31 26.5 31L 26.5 45.25ZM 29.5 28.75C 30.002895 28.746988 30.50465 28.70183 31 28.615002L 31 26.32C 31.737789 26.150751 32.441353 25.85705 33.080498 25.4515L 34.709499 27.0805C 35.530037 26.496971 36.246971 25.780039 36.830498 24.959499L 35.199997 23.3305C 35.606075 22.691456 35.900284 21.987885 36.07 21.25L 38.364998 21.25C 38.451828 20.75465 38.496986 20.252893 38.5 19.75C 38.496986 19.247107 38.451828 18.74535 38.364998 18.25L 36.07 18.25C 35.900284 17.512114 35.606075 16.808544 35.199997 16.1695L 36.828999 14.5405C 36.245472 13.719961 35.528538 13.00303 34.708 12.4195L 33.080502 14.05C 32.441452 13.643923 31.737885 13.349712 30.999998 13.18L 31 10.885C 30.50465 10.79817 30.002895 10.753013 29.5 10.75M 29.5 16.75C 31.156855 16.75 32.5 18.093145 32.5 19.75C 32.5 21.406855 31.156855 22.75 29.5 22.75M 43.75 45.25C 43.744587 44.496021 43.679382 43.743664 43.555 42.999996L 40.523502 43C 40.323086 42.026867 39.993149 41.084984 39.542503 40.199501L 41.749001 37.994499C 40.716793 36.252941 39.326656 34.750324 37.670502 33.586002L 35.5075 35.7505C 34.579052 35.159893 33.568016 34.710487 32.5075 34.417L 32.5075 31.3225C 31.519201 31.109098 30.511076 31.000994 29.5 31M 29.5 39.25C 32.813709 39.25 35.5 41.936291 35.5 45.25"></path></g></g></g><g id="g-root-tx_adaptabi_1qbyrp812cwikl-stroke" data-item-order="0" transform="translate(560, 362)"></g><g id="g-root-tx_approche_18k2a4c12cv280-stroke" data-item-order="0" transform="translate(206, 386)"></g><g id="g-root-ic_pick_4mb83g12cv3sz-stroke" data-item-order="0" transform="translate(434, 374)"><g id="ic_pick_4mb83g12cv3sz-stroke" fill="none" stroke-linecap="round" stroke-linejoin="round" stroke-miterlimit="4" stroke="#e55753" stroke-width="2"><g><path d="M 22.953999 33.685001C 22.953552 36.497826 25.233673 38.778309 28.046501 38.778309C 30.859325 38.778309 33.139446 36.497826 33.139 33.685001C 33.139446 30.872173 30.859325 28.59169 28.046501 28.59169C 25.233673 28.59169 22.953552 30.872173 22.953999 33.685001M 20.239 45.25C 21.416746 42.012302 24.470484 39.837364 27.915302 39.782772C 31.360119 39.728172 34.481247 41.805252 35.761002 45.004002M 14.347 35.495499C 14.347 37.308098 15.816401 38.7775 17.629 38.7775C 19.441599 38.7775 20.910999 37.308098 20.910999 35.495499C 20.910999 33.682899 19.441599 32.213501 17.629 32.213501C 15.816401 32.213501 14.347 33.682899 14.347 35.495499M 21.584499 42.878502C 20.455975 41.993725 19.063015 41.513557 17.629 41.514999C 15.198223 41.521507 12.975733 42.888481 11.8735 45.055M 35.089001 35.495499C 35.089001 37.308098 36.558403 38.7775 38.370998 38.7775C 40.183598 38.7775 41.653 37.308098 41.653 35.495499C 41.653 33.682899 40.183598 32.213501 38.370998 32.213501C 36.558403 32.213501 35.089001 33.682899 35.089001 35.495499M 44.126499 45.055C 43.024265 42.888481 40.801777 41.521507 38.370998 41.514999C 36.961334 41.511909 35.590195 41.974934 34.471001 42.832001M 37.75 10.75L 32.284 10.9C 31.282976 10.928275 30.314804 11.263391 29.5105 11.86L 24.280001 15.740499C 23.181467 16.557356 22.389105 17.719488 22.030001 19.040501L 21.130001 22.362999C 20.772472 23.381878 20.768246 24.49143 21.118 25.513C 21.664667 26.581409 22.916513 27.081764 24.049 26.6845C 24.715189 26.472345 25.225269 25.932226 25.399002 25.255001L 26.521 20.563C 26.705097 20.127905 27.014803 19.757616 27.4105 19.4995L 31.168001 17.049999C 31.868412 16.59185 32.757881 16.534906 33.511002 16.9C 34.111 17.200001 35.170002 17.778999 35.403999 18.379C 35.866421 19.330063 35.702396 20.466934 34.989998 21.248499L 32.177498 23.992001C 31.315153 24.779045 31.171299 26.084011 31.841499 27.039999C 32.703999 28.067501 33.916 27.463001 35.035 26.689001L 40.09 23.191C 40.532097 22.883778 40.858063 22.436831 41.015499 21.922001L 42.065502 18.488501"></path></g></g></g><g id="g-root-tx_capacita_145hq6412cwhse-stroke" data-item-order="0" transform="translate(542, 398)"></g></g></g><path id="w18hkqf0136ftai" d="M65.283 12.757a.35.35 0 0 0 .584.157l5.203-5.141-6.183 3.523.396 1.461zm-2.216-11.7a.35.35 0 0 0-.522.305v3.111l3.276-1.868-2.754-1.548zm3.728 2.105l-4.25 2.421v2.445l6.391-3.644-2.141-1.222zm4.708 3.303a.35.35 0 0 0 0-.609l-1.592-.9-7.365 4.199v1.782a.35.35 0 0 0 .523.305l8.435-4.777z M44.542 2.513c0-.433.355-.783.792-.783s.792.35.792.783-.355.783-.792.783-.792-.35-.792-.783zm59.171 0c0-.433.355-.783.792-.783s.792.35.792.783-.355.783-.792.783-.792-.35-.792-.783zm-85.951 7.636h-1.27v-.487c-.276.201-.864.609-1.881.609-1.202 0-2.274-.794-2.137-2.078.118-1.106 1.153-1.584 1.848-1.727l2.17-.345c0-.539-.29-.956-1.064-1.006s-1.21.305-1.571 1.017l-1.124-.605c1.218-2.631 5.029-1.764 5.029.414v4.207zm-1.27-2.86c.006.396-.062 1.112-.819 1.59-.587.37-1.841.299-1.903-.395-.049-.555.461-.791.906-.898l1.816-.297zm72.662 2.86h-1.27v-.487c-.276.201-.864.609-1.881.609-1.202 0-2.274-.794-2.137-2.078.118-1.106 1.153-1.584 1.848-1.727l2.17-.345c0-.539-.29-.956-1.064-1.006s-1.21.305-1.571 1.017l-1.124-.605c1.218-2.631 5.029-1.764 5.029.414v4.207zm-1.27-2.86c.006.396-.062 1.112-.82 1.59-.587.37-1.841.299-1.903-.395-.049-.555.461-.791.906-.898l1.816-.297zM99.096 10.149H97.85v-8.45h1.246v4.895l2.68-2.559h1.738l-2.633 2.535 2.715 3.578h-1.556l-2.077-2.707-.867.844v1.863zm6.053-6.114h-1.255v6.113h1.255V4.035zm-59.2 0h-1.255v6.113h1.255V4.035zm5.584 6.113V1.697h1.255v2.695c.361-.346 1-.485 1.47-.485 1.452 0 2.477 1.082 2.457 2.448v3.792h-1.27v-3.68c0-.408-.214-1.339-1.315-1.339-.968 0-1.342.756-1.342 1.339v3.681h-1.255zm-4.76-4.894V4.039h.621a.45.45 0 0 0 .45-.45v-.855h1.251v1.305h1.309v1.215h-1.309v3.109c0 .293.105.664.648.664.365 0 .531-.035.736-.07v1.137s-.361.113-.857.113c-1.398 0-1.777-1.051-1.777-1.788V5.254h-1.071zM36.528 4.039h-1.394l2.191 6.106h1.125l1.234-3.918 1.238 3.918h1.129l2.188-6.106h-1.383l-1.359 3.93-1.256-3.93h-1.124l-1.242 3.957-1.348-3.957zM26.212 7.141c-.02 1.566 1.187 3.129 3.223 3.129 1.566 0 2.383-.918 2.734-1.719L31.172 8c-.315.399-.801 1.094-1.738 1.094-1.145 0-1.825-.781-1.891-1.52h4.625c.074-.284.148-.995-.03-1.559-.336-1.064-1.221-2.102-2.839-2.102s-3.088 1.152-3.088 3.227zm1.363-.75h3.348c-.055-.43-.566-1.301-1.623-1.301a1.79 1.79 0 0 0-1.725 1.301zm-8.758.75c.038 1.758 1.277 3.133 3.145 3.133 1.074 0 1.723-.477 1.961-.672v.547h1.242V1.703h-1.258v2.888c-.414-.36-1.062-.68-1.93-.68-1.91 0-3.198 1.473-3.16 3.23zm1.309-.08c0 1.119.723 1.978 1.836 1.978a1.88 1.88 0 0 0 1.94-1.904c0-1.371-1.011-1.99-1.972-1.99s-1.805.798-1.805 1.916zm76.683-.028C96.771 5.275 95.532 3.9 93.664 3.9c-1.074 0-1.723.477-1.961.672v-.547h-1.242v8.22h1.258V9.583c.414.36 1.063.68 1.93.68 1.91 0 3.198-1.473 3.16-3.23zm-1.309.08c0-1.119-.723-1.978-1.836-1.978a1.88 1.88 0 0 0-1.94 1.904c0 1.371 1.011 1.99 1.972 1.99S95.5 8.231 95.5 7.113zM106.441 10.173V4.036h1.254v.382c.361-.346 1-.485 1.47-.485 1.452 0 2.477 1.082 2.457 2.448v3.792h-1.27V6.492c0-.408-.214-1.339-1.315-1.339-.969 0-1.342.756-1.342 1.339v3.681h-1.254zm-30.383-.021V1.824h1.084l4.215 5.777V1.824h1.32v8.328h-1.094l-4.207-5.796v5.796h-1.319zM5.24 10.149H4V2.377h1.014l2.664 3.597 2.654-3.592h1.03v7.766h-1.256V4.762L7.678 8.068 5.24 4.742v5.407z" transform="translate(20, 506)" fill="#80808088" stroke="none"></path></svg>