<?xml version="1.0" encoding="UTF-8" standalone="no"?>
<svg
   width="936"
   height="492"
   viewBox="0 0 936 492"
   style="fill:none;stroke:none;fill-rule:evenodd;clip-rule:evenodd;stroke-linecap:round;stroke-linejoin:round;stroke-miterlimit:1.5;"
   version="1.1"
   id="svg50"
   sodipodi:docname="services_de_developpement.svg"
   inkscape:version="1.4 (86a8ad7, 2024-10-11)"
   xmlns:inkscape="http://www.inkscape.org/namespaces/inkscape"
   xmlns:sodipodi="http://sodipodi.sourceforge.net/DTD/sodipodi-0.dtd"
   xmlns="http://www.w3.org/2000/svg"
   xmlns:svg="http://www.w3.org/2000/svg">
  <defs
     id="defs50" />
  <sodipodi:namedview
     id="namedview50"
     pagecolor="#ffffff"
     bordercolor="#000000"
     borderopacity="0.25"
     inkscape:showpageshadow="2"
     inkscape:pageopacity="0.0"
     inkscape:pagecheckerboard="0"
     inkscape:deskcolor="#d1d1d1"
     showgrid="false"
     inkscape:zoom="1.3258547"
     inkscape:cx="713.87913"
     inkscape:cy="246.25624"
     inkscape:window-width="1920"
     inkscape:window-height="1009"
     inkscape:window-x="-8"
     inkscape:window-y="-8"
     inkscape:window-maximized="1"
     inkscape:current-layer="svg50" />
  <style
     class="text-font-style fontImports"
     data-font-family="Roboto"
     id="style1">@import url('https://fonts.googleapis.com/css2?family=Roboto:wght@400;700&amp;display=block');</style>
  <g
     id="items"
     style="isolation: isolate">
    <g
       id="blend"
       style="mix-blend-mode: normal">
      <g
         id="g-root-cp_1_bubble-1_1d2drm512wc1lb-fill"
         data-item-order="-351638"
         transform="translate(38, 110)">
        <g
           id="cp_1_bubble-1_1d2drm512wc1lb-fill"
           stroke="none"
           fill="#e0cb15">
          <g
             id="g1">
            <path
               d="M 34 22C 27.3726 22 22 27.3726 22 34L 10 34C 10 20.7452 20.7452 10 34 10L 34 22ZM 178 22L 178 10L 34 10.000001L 34.000003 22L 178 22ZM 178.000003 10C 191.2548 10 202 20.7452 202 34L 190 34C 190 27.3726 184.6274 22 178 22L 178.000003 10ZM 202 34L 202 142L 190 142L 190 34L 202 34ZM 10.000004 142L 10 34.000011L 22 34.000011L 22 142L 10.000004 142ZM 22 142C 22 148.6274 27.3726 154 34 154L 34 166L 10 166L 10 142L 22 142ZM 190 142C 190 148.6274 184.6274 154 178 154L 178 166L 202 166L 202 142L 190 142ZM 94 154L 34 154L 34 166L 178 166L 178 154L 118 154L 108.8284 163.1716C 107.2663 164.7337 104.7337 164.7337 103.1716 163.1716L 94 154Z"
               id="path1" />
          </g>
        </g>
      </g>
      <g
         id="g-root-cp_1_bubble-1_1_147d8gd12wc001-fill"
         data-item-order="-351586"
         transform="translate(38, 266)">
        <g
           id="cp_1_bubble-1_1_147d8gd12wc001-fill"
           stroke="none"
           fill="#e0cb15">
          <g
             id="g2">
            <path
               d="M 202 10.000013L 202 130L 10 130L 10.000004 10L 202 10.000013ZM 34 154C 20.7452 154 9.999999 143.2548 10 130L 34 130.000002L 34 154ZM 202 130L 178 130L 178 154C 191.2548 154 202 143.2548 202 130ZM 34 154L 34 130L 178 130L 178 154L 34 154Z"
               id="path2" />
          </g>
        </g>
      </g>
      <g
         id="g-root-cp_2_bubble-2_qvwq3112wc1kz-fill"
         data-item-order="-351560"
         transform="translate(254, 110)">
        <g
           id="cp_2_bubble-2_qvwq3112wc1kz-fill"
           stroke="none"
           fill="#92bd39">
          <g
             id="g3">
            <path
               d="M 34 22C 27.3726 22 22 27.3726 22 34L 10 34C 10 20.7452 20.7452 10 34 10L 34 22ZM 178 22L 178 10L 34 10.000001L 34.000003 22L 178 22ZM 178.000003 10C 191.2548 10 202 20.7452 202 34L 190 34C 190 27.3726 184.6274 22 178 22L 178.000003 10ZM 202 34L 202 142L 190 142L 190 34L 202 34ZM 10.000004 142L 10 34.000011L 22 34.000011L 22 142L 10.000004 142ZM 22 142C 22 148.6274 27.3726 154 34 154L 34 166L 10 166L 10 142L 22 142ZM 190 142C 190 148.6274 184.6274 154 178 154L 178 166L 202 166L 202 142L 190 142ZM 94 154L 34 154L 34 166L 178 166L 178 154L 118 154L 108.8284 163.1716C 107.2663 164.7337 104.7337 164.7337 103.1716 163.1716L 94 154Z"
               id="path3" />
          </g>
        </g>
      </g>
      <g
         id="g-root-cp_2_bubble-2_1_i09pu512wc2dp-fill"
         data-item-order="-351508"
         transform="translate(254, 266)">
        <g
           id="cp_2_bubble-2_1_i09pu512wc2dp-fill"
           stroke="none"
           fill="#92bd39">
          <g
             id="g4">
            <path
               d="M 202 10.000013L 202 130L 10 130L 10.000004 10L 202 10.000013ZM 34 154C 20.7452 154 9.999999 143.2548 10 130L 34 130.000002L 34 154ZM 202 130L 178 130L 178 154C 191.2548 154 202 143.2548 202 130ZM 34 154L 34 130L 178 130L 178 154L 34 154Z"
               id="path4" />
          </g>
        </g>
      </g>
      <g
         id="g-root-cp_3_bubble-3_4pfojx12wc0sv-fill"
         data-item-order="-351482"
         transform="translate(470, 110)">
        <g
           id="cp_3_bubble-3_4pfojx12wc0sv-fill"
           stroke="none"
           fill="#3cc583">
          <g
             id="g5">
            <path
               d="M 34 22C 27.3726 22 22 27.3726 22 34L 10 34C 10 20.7452 20.7452 10 34 10L 34 22ZM 178 22L 178 10L 34 10.000001L 34.000003 22L 178 22ZM 178.000003 10C 191.2548 10 202 20.7452 202 34L 190 34C 190 27.3726 184.6274 22 178 22L 178.000003 10ZM 202 34L 202 142L 190 142L 190 34L 202 34ZM 10.000004 142L 10 34.000011L 22 34.000011L 22 142L 10.000004 142ZM 22 142C 22 148.6274 27.3726 154 34 154L 34 166L 10 166L 10 142L 22 142ZM 190 142C 190 148.6274 184.6274 154 178 154L 178 166L 202 166L 202 142L 190 142ZM 94 154L 34 154L 34 166L 178 166L 178 154L 118 154L 108.8284 163.1716C 107.2663 164.7337 104.7337 164.7337 103.1716 163.1716L 94 154Z"
               id="path5" />
          </g>
        </g>
      </g>
      <g
         id="g-root-cp_3_bubble-3_1_1uuwqa512wc269-fill"
         data-item-order="-351430"
         transform="translate(470, 266)">
        <g
           id="cp_3_bubble-3_1_1uuwqa512wc269-fill"
           stroke="none"
           fill="#3cc583">
          <g
             id="g6">
            <path
               d="M 202 10.000011L 202 118L 10 118L 10.000004 10L 202 10.000011ZM 34 142C 20.7452 142 9.999999 131.2548 10 118L 34 118.000002L 34 142ZM 202 118L 178 118L 178 142C 191.2548 142 202 131.2548 202 118ZM 34 142L 34 118L 178 118L 178 142L 34 142Z"
               id="path6" />
          </g>
        </g>
      </g>
      <g
         id="g-root-cp_4_bubble-4_1ha33m512wdf5v-fill"
         data-item-order="-351404"
         transform="translate(686, 110)">
        <g
           id="cp_4_bubble-4_1ha33m512wdf5v-fill"
           stroke="none"
           fill="#1eabda">
          <g
             id="g7">
            <path
               d="M 34 22C 27.3726 22 22 27.3726 22 34L 10 34C 10 20.7452 20.7452 10 34 10L 34 22ZM 178 22L 178 10L 34 10.000001L 34.000003 22L 178 22ZM 178.000003 10C 191.2548 10 202 20.7452 202 34L 190 34C 190 27.3726 184.6274 22 178 22L 178.000003 10ZM 202 34L 202 142L 190 142L 190 34L 202 34ZM 10.000004 142L 10 34.000011L 22 34.000011L 22 142L 10.000004 142ZM 22 142C 22 148.6274 27.3726 154 34 154L 34 166L 10 166L 10 142L 22 142ZM 190 142C 190 148.6274 184.6274 154 178 154L 178 166L 202 166L 202 142L 190 142ZM 94 154L 34 154L 34 166L 178 166L 178 154L 118 154L 108.8284 163.1716C 107.2663 164.7337 104.7337 164.7337 103.1716 163.1716L 94 154Z"
               id="path7" />
          </g>
        </g>
      </g>
      <g
         id="g-root-cp_4_bubble-4_1_13yml8t12wdgqt-fill"
         data-item-order="-351350"
         transform="translate(686, 266)">
        <g
           id="cp_4_bubble-4_1_13yml8t12wdgqt-fill"
           stroke="none"
           fill="#1eabda">
          <g
             id="g8">
            <path
               d="M 202 10.000011L 202 118L 10 118L 10.000004 10L 202 10.000011ZM 34 142C 20.7452 142 9.999999 131.2548 10 118L 34 118.000002L 34 142ZM 202 118L 178 118L 178 142C 191.2548 142 202 131.2548 202 118ZM 34 142L 34 118L 178 118L 178 142L 34 142Z"
               id="path8" />
          </g>
        </g>
      </g>
      <g
         id="g-root-tx_services_v3m23112wdedr-fill"
         data-item-order="0"
         transform="translate(332, 38)">
        <g
           id="tx_services_v3m23112wdedr-fill"
           stroke="none"
           fill="#484848">
          <g
             id="g9">
            <text
               style="font: 20px Roboto, sans-serif; white-space: pre;"
               font-size="20px"
               font-family="Roboto, sans-serif"
               id="text8"><tspan
                 x="12.98"
                 y="34"
                 dominant-baseline="ideographic"
                 id="tspan8">Services de Développement</tspan></text>
          </g>
        </g>
      </g>
      <g
         id="g-root-ic_page_m7z1u512wdfy8-fill"
         data-item-order="0"
         transform="translate(110, 134)" />
      <g
         id="g-root-ic_1_91ic5p12wdgxv-fill"
         data-item-order="0"
         transform="translate(326, 134)" />
      <g
         id="g-root-ic_chec_18fp1jh12wevim-fill"
         data-item-order="0"
         transform="translate(542, 134)" />
      <g
         id="g-root-ic_grap_1lxearx12wevih-fill"
         data-item-order="0"
         transform="translate(758, 134)" />
      <g
         id="g-root-tx_applicat_143mdxp12wdg5l-fill"
         data-item-order="0"
         transform="translate(68, 194)">
        <g
           id="tx_applicat_143mdxp12wdg5l-fill"
           stroke="none"
           fill="#e0cb15">
          <g
             id="g10">
            <text
               style="font: bold 20px Roboto, sans-serif; white-space: pre;"
               font-weight="bold"
               font-size="20px"
               font-family="Roboto, sans-serif"
               id="text10"><tspan
                 x="17.42"
                 y="34"
                 dominant-baseline="ideographic"
                 id="tspan9">Applications </tspan><tspan
                 x="53.89"
                 y="58"
                 dominant-baseline="ideographic"
                 id="tspan10">Web</tspan></text>
          </g>
        </g>
      </g>
      <g
         id="g-root-tx_applicat_1i0b112wesjw-fill"
         data-item-order="0"
         transform="translate(284, 194)">
        <g
           id="tx_applicat_1i0b112wesjw-fill"
           stroke="none"
           fill="#92bd39">
          <g
             id="g12">
            <text
               style="font: bold 20px Roboto, sans-serif; white-space: pre;"
               font-weight="bold"
               font-size="20px"
               font-family="Roboto, sans-serif"
               id="text12"><tspan
                 x="17.42"
                 y="34"
                 dominant-baseline="ideographic"
                 id="tspan11">Applications </tspan><tspan
                 x="37.66"
                 y="58"
                 dominant-baseline="ideographic"
                 id="tspan12">Mobiles</tspan></text>
          </g>
        </g>
      </g>
      <g
         id="g-root-tx_backenda_hyeakt12weuxb-fill"
         data-item-order="0"
         transform="translate(506, 194)">
        <g
           id="tx_backenda_hyeakt12weuxb-fill"
           stroke="none"
           fill="#3cc583">
          <g
             id="g14">
            <text
               style="font: bold 20px Roboto, sans-serif; white-space: pre;"
               font-weight="bold"
               font-size="20px"
               font-family="Roboto, sans-serif"
               id="text14"><tspan
                 x="15.58"
                 y="34"
                 dominant-baseline="ideographic"
                 id="tspan13">Back-end &amp; </tspan><tspan
                 x="51.42"
                 y="58"
                 dominant-baseline="ideographic"
                 id="tspan14">API</tspan></text>
          </g>
        </g>
      </g>
      <g
         id="g-root-tx_optimisa_8ydyq512wg7b6-fill"
         data-item-order="0"
         transform="translate(710, 194)">
        <g
           id="tx_optimisa_8ydyq512wg7b6-fill"
           stroke="none"
           fill="#1eabda">
          <g
             id="g16">
            <text
               style="font: bold 20px Roboto, sans-serif; white-space: pre;"
               font-weight="bold"
               font-size="20px"
               font-family="Roboto, sans-serif"
               id="text16"><tspan
                 x="13.65"
                 y="34"
                 dominant-baseline="ideographic"
                 id="tspan15">Optimisation &amp; </tspan><tspan
                 x="21.7"
                 y="58"
                 dominant-baseline="ideographic"
                 id="tspan16">Performance</tspan></text>
          </g>
        </g>
      </g>
      <g
         id="g-root-tx_sitesper_qsscnh12wdekq-fill"
         data-item-order="0"
         transform="translate(62, 278)">
        <g
           id="tx_sitesper_qsscnh12wdekq-fill"
           stroke="none"
           fill="#ffffff">
          <g
             id="g22">
            <text
               style="font: 15px Roboto, sans-serif; white-space: pre;"
               font-size="15px"
               font-family="Roboto, sans-serif"
               id="text22"><tspan
                 x="13.73"
                 y="28"
                 dominant-baseline="ideographic"
                 id="tspan17">Sites personnalisés, </tspan><tspan
                 x="37.02"
                 y="46"
                 dominant-baseline="ideographic"
                 id="tspan18">e-commerce, </tspan><tspan
                 x="20.94"
                 y="64"
                 dominant-baseline="ideographic"
                 id="tspan19">plateformes SaaS </tspan><tspan
                 x="48.3"
                 y="82"
                 dominant-baseline="ideographic"
                 id="tspan20">axées sur </tspan><tspan
                 x="41.06"
                 y="100"
                 dominant-baseline="ideographic"
                 id="tspan21">l'expérience </tspan><tspan
                 x="45.61"
                 y="118"
                 dominant-baseline="ideographic"
                 id="tspan22">utilisateur.</tspan></text>
          </g>
        </g>
      </g>
      <g
         id="g-root-tx_applicat_1lr5jwt12wetxp-fill"
         data-item-order="0"
         transform="translate(278, 278)">
        <g
           id="tx_applicat_1lr5jwt12wetxp-fill"
           stroke="none"
           fill="#ffffff">
          <g
             id="g28">
            <text
               style="font: 15px Roboto, sans-serif; white-space: pre;"
               font-size="15px"
               font-family="Roboto, sans-serif"
               id="text28"><tspan
                 x="13.34"
                 y="28"
                 dominant-baseline="ideographic"
                 id="tspan23">Applications natives </tspan><tspan
                 x="15.15"
                 y="46"
                 dominant-baseline="ideographic"
                 id="tspan24">et multiplateformes </tspan><tspan
                 x="23.04"
                 y="64"
                 dominant-baseline="ideographic"
                 id="tspan25">pour iOS/Android </tspan><tspan
                 x="51.21"
                 y="82"
                 dominant-baseline="ideographic"
                 id="tspan26">avec des </tspan><tspan
                 x="33.87"
                 y="100"
                 dominant-baseline="ideographic"
                 id="tspan27">performances </tspan><tspan
                 x="41.82"
                 y="118"
                 dominant-baseline="ideographic"
                 id="tspan28">optimisées.</tspan></text>
          </g>
        </g>
      </g>
      <g
         id="g-root-tx_services_93drf112wetc0-fill"
         data-item-order="0"
         transform="translate(494, 278)">
        <g
           id="tx_services_93drf112wetc0-fill"
           stroke="none"
           fill="#ffffff">
          <g
             id="g33">
            <text
               style="font: 15px Roboto, sans-serif; white-space: pre;"
               font-size="15px"
               font-family="Roboto, sans-serif"
               id="text33"><tspan
                 x="20.48"
                 y="31"
                 dominant-baseline="ideographic"
                 id="tspan29">Services back-end </tspan><tspan
                 x="12.95"
                 y="49"
                 dominant-baseline="ideographic"
                 id="tspan30">robustes et API pour </tspan><tspan
                 x="36.15"
                 y="67"
                 dominant-baseline="ideographic"
                 id="tspan31">connecter les </tspan><tspan
                 x="30.26"
                 y="85"
                 dominant-baseline="ideographic"
                 id="tspan32">applications de </tspan><tspan
                 x="18.05"
                 y="103"
                 dominant-baseline="ideographic"
                 id="tspan33">manière sécurisée.</tspan></text>
          </g>
        </g>
      </g>
      <g
         id="g-root-tx_auditeto_1lsei3112wg9hn-fill"
         data-item-order="0"
         transform="translate(704, 278)">
        <g
           id="tx_auditeto_1lsei3112wg9hn-fill"
           stroke="none"
           fill="#ffffff">
          <g
             id="g38">
            <text
               style="font: 15px Roboto, sans-serif; white-space: pre;"
               font-size="15px"
               font-family="Roboto, sans-serif"
               id="text38"><tspan
                 x="17.52"
                 y="31"
                 dominant-baseline="ideographic"
                 id="tspan34">Audit et optimisation </tspan><tspan
                 x="32.31"
                 y="49"
                 dominant-baseline="ideographic"
                 id="tspan35">des applications </tspan><tspan
                 x="35.58"
                 y="67"
                 dominant-baseline="ideographic"
                 id="tspan36">existantes pour </tspan><tspan
                 x="20.94"
                 y="85"
                 dominant-baseline="ideographic"
                 id="tspan37">améliorer les temps </tspan><tspan
                 x="34.98"
                 y="103"
                 dominant-baseline="ideographic"
                 id="tspan38">de chargement.</tspan></text>
          </g>
        </g>
      </g>
      <g
         id="g-root-cp_1_bubble-1_1d2drm512wc1lb-stroke"
         data-item-order="-351638"
         transform="translate(38, 110)">
        <g
           id="cp_1_bubble-1_1d2drm512wc1lb-stroke"
           fill="none"
           stroke-linecap="round"
           stroke-linejoin="round"
           stroke-miterlimit="4"
           stroke="#ffffff"
           stroke-width="2">
          <g
             id="g39">
            <path
               d="M 10 34C 10 20.7452 20.7452 10 34 10M 178 10L 34 10M 202 34C 202 20.7452 191.2548 10 178 10M 202 166L 202 34M 10 166L 10 34M 22 34C 22 27.3726 27.3726 22 34 22M 178 22L 34 22M 190 34C 190 27.3726 184.6274 22 178 22M 190 141.999741L 190 34M 178 154C 184.6274 154 190 148.6274 190 142M 34 154L 94 154L 103.1716 163.1716C 104.7337 164.7337 107.2663 164.7337 108.8284 163.1716L 118 154L 178 154M 34 154C 27.3726 154 22 148.6274 22 142M 22 141.999741L 22 34"
               id="path38" />
          </g>
        </g>
      </g>
      <g
         id="g-root-cp_1_bubble-1_1_147d8gd12wc001-stroke"
         data-item-order="-351586"
         transform="translate(38, 266)">
        <g
           id="cp_1_bubble-1_1_147d8gd12wc001-stroke"
           fill="none"
           stroke-linecap="round"
           stroke-linejoin="round"
           stroke-miterlimit="4"
           stroke="#ffffff"
           stroke-width="2">
          <g
             id="g40">
            <path
               d="M 201.999985 130L 201.999985 10M 178 154C 191.2548 154 202 143.2548 202 130M 34 154L 178 154M 34 154C 20.7452 154 10 143.2548 10 130M 10 130L 10 10"
               id="path39" />
          </g>
        </g>
      </g>
      <g
         id="g-root-cp_2_bubble-2_qvwq3112wc1kz-stroke"
         data-item-order="-351560"
         transform="translate(254, 110)">
        <g
           id="cp_2_bubble-2_qvwq3112wc1kz-stroke"
           fill="none"
           stroke-linecap="round"
           stroke-linejoin="round"
           stroke-miterlimit="4"
           stroke="#ffffff"
           stroke-width="2">
          <g
             id="g41">
            <path
               d="M 10 34C 10 20.7452 20.7452 10 34 10M 178 10L 34 10M 202 34C 202 20.7452 191.2548 10 178 10M 202 166L 202 34M 10 166L 10 34M 22 34C 22 27.3726 27.3726 22 34 22M 178 22L 34 22M 190 34C 190 27.3726 184.6274 22 178 22M 190 141.999741L 190 34M 178 154C 184.6274 154 190 148.6274 190 142M 34 154L 94 154L 103.1716 163.1716C 104.7337 164.7337 107.2663 164.7337 108.8284 163.1716L 118 154L 178 154M 34 154C 27.3726 154 22 148.6274 22 142M 22 141.999741L 22 34"
               id="path40" />
          </g>
        </g>
      </g>
      <g
         id="g-root-cp_2_bubble-2_1_i09pu512wc2dp-stroke"
         data-item-order="-351508"
         transform="translate(254, 266)">
        <g
           id="cp_2_bubble-2_1_i09pu512wc2dp-stroke"
           fill="none"
           stroke-linecap="round"
           stroke-linejoin="round"
           stroke-miterlimit="4"
           stroke="#ffffff"
           stroke-width="2">
          <g
             id="g42">
            <path
               d="M 201.999985 130L 201.999985 10M 178 154C 191.2548 154 202 143.2548 202 130M 34 154L 178 154M 34 154C 20.7452 154 10 143.2548 10 130M 10 130L 10 10"
               id="path41" />
          </g>
        </g>
      </g>
      <g
         id="g-root-cp_3_bubble-3_4pfojx12wc0sv-stroke"
         data-item-order="-351482"
         transform="translate(470, 110)">
        <g
           id="cp_3_bubble-3_4pfojx12wc0sv-stroke"
           fill="none"
           stroke-linecap="round"
           stroke-linejoin="round"
           stroke-miterlimit="4"
           stroke="#ffffff"
           stroke-width="2">
          <g
             id="g43">
            <path
               d="M 10 34C 10 20.7452 20.7452 10 34 10M 178 10L 34 10M 202 34C 202 20.7452 191.2548 10 178 10M 202 166L 202 34M 10 166L 10 34M 22 34C 22 27.3726 27.3726 22 34 22M 178 22L 34 22M 190 34C 190 27.3726 184.6274 22 178 22M 190 141.999741L 190 34M 178 154C 184.6274 154 190 148.6274 190 142M 34 154L 94 154L 103.1716 163.1716C 104.7337 164.7337 107.2663 164.7337 108.8284 163.1716L 118 154L 178 154M 34 154C 27.3726 154 22 148.6274 22 142M 22 141.999741L 22 34"
               id="path42" />
          </g>
        </g>
      </g>
      <g
         id="g-root-cp_3_bubble-3_1_1uuwqa512wc269-stroke"
         data-item-order="-351430"
         transform="translate(470, 266)">
        <g
           id="cp_3_bubble-3_1_1uuwqa512wc269-stroke"
           fill="none"
           stroke-linecap="round"
           stroke-linejoin="round"
           stroke-miterlimit="4"
           stroke="#ffffff"
           stroke-width="2">
          <g
             id="g44">
            <path
               d="M 202 118L 202 10M 178 142C 191.2548 142 202 131.2548 202 118M 34 142L 178 142M 34 142C 20.7452 142 10 131.2548 10 118M 10 118L 10 10"
               id="path43" />
          </g>
        </g>
      </g>
      <g
         id="g-root-cp_4_bubble-4_1ha33m512wdf5v-stroke"
         data-item-order="-351404"
         transform="translate(686, 110)">
        <g
           id="cp_4_bubble-4_1ha33m512wdf5v-stroke"
           fill="none"
           stroke-linecap="round"
           stroke-linejoin="round"
           stroke-miterlimit="4"
           stroke="#ffffff"
           stroke-width="2">
          <g
             id="g45">
            <path
               d="M 10 34C 10 20.7452 20.7452 10 34 10M 178 10L 34 10M 202 34C 202 20.7452 191.2548 10 178 10M 202 166L 202 34M 10 166L 10 34M 22 34C 22 27.3726 27.3726 22 34 22M 178 22L 34 22M 190 34C 190 27.3726 184.6274 22 178 22M 190 141.999741L 190 34M 178 154C 184.6274 154 190 148.6274 190 142M 34 154L 94 154L 103.1716 163.1716C 104.7337 164.7337 107.2663 164.7337 108.8284 163.1716L 118 154L 178 154M 34 154C 27.3726 154 22 148.6274 22 142M 22 141.999741L 22 34"
               id="path44" />
          </g>
        </g>
      </g>
      <g
         id="g-root-cp_4_bubble-4_1_13yml8t12wdgqt-stroke"
         data-item-order="-351350"
         transform="translate(686, 266)">
        <g
           id="cp_4_bubble-4_1_13yml8t12wdgqt-stroke"
           fill="none"
           stroke-linecap="round"
           stroke-linejoin="round"
           stroke-miterlimit="4"
           stroke="#ffffff"
           stroke-width="2">
          <g
             id="g46">
            <path
               d="M 202 118L 202 10M 178 142C 191.2548 142 202 131.2548 202 118M 34 142L 178 142M 34 142C 20.7452 142 10 131.2548 10 118M 10 118L 10 10"
               id="path45" />
          </g>
        </g>
      </g>
      <g
         id="g-root-tx_services_v3m23112wdedr-stroke"
         data-item-order="0"
         transform="translate(332, 38)" />
      <g
         id="g-root-ic_page_m7z1u512wdfy8-stroke"
         data-item-order="0"
         transform="translate(110, 134)">
        <g
           id="ic_page_m7z1u512wdfy8-stroke"
           fill="none"
           stroke-linecap="round"
           stroke-linejoin="round"
           stroke-miterlimit="4"
           stroke="#e0cb15"
           stroke-width="2">
          <g
             id="g47">
            <path
               d="M 53 21L 54 21C 55.652313 21.010906 56.989094 22.347685 57 24L 57 50C 56.989094 51.652313 55.652313 52.989094 54 53L 14 53C 12.347685 52.989094 11.010906 51.652313 11 50L 11 24C 11.010906 22.347685 12.347685 21.010906 14 21L 15 21M 24 57L 44 57M 34 53L 34 57M 19 41L 19 13C 19 11.895431 19.895432 11 21 11L 47 11C 48.104568 11 49 11.895431 49 13L 49 41M 24 25L 30 25C 30 25 31 25 31 26L 31 31C 31 31 31 32 30 32L 24 32C 24 32 23 32 23 31L 23 26C 23 26 23 25 24 25M 35.200001 31L 45 31M 35.200001 25L 45 25M 23 37L 45 37M 11 47L 57 47M 19 20L 49 20M 23.5 15C 23.776142 15 24 15.223858 24 15.5C 24 15.776142 23.776142 16 23.5 16C 23.223858 16 23 15.776142 23 15.5C 23 15.223858 23.223858 15 23.5 15M 28.5 15C 28.776142 15 29 15.223858 29 15.5C 29 15.776142 28.776142 16 28.5 16C 28.223858 16 28 15.776142 28 15.5C 28 15.223858 28.223858 15 28.5 15M 33.5 15C 33.776142 15 34 15.223858 34 15.5C 34 15.776142 33.776142 16 33.5 16C 33.223858 16 33 15.776142 33 15.5C 33 15.223858 33.223858 15 33.5 15"
               id="path46" />
          </g>
        </g>
      </g>
      <g
         id="g-root-ic_1_91ic5p12wdgxv-stroke"
         data-item-order="0"
         transform="translate(326, 134)">
        <g
           id="ic_1_91ic5p12wdgxv-stroke"
           fill="none"
           stroke-linecap="round"
           stroke-linejoin="round"
           stroke-miterlimit="4"
           stroke="#92bd39"
           stroke-width="2">
          <g
             id="g48">
            <path
               d="M 39.112 17.133999L 28.888 17.133999M 16.112 57L 16.112 15.087999C 16.112 12.830259 17.942261 11 20.200001 11L 47.799999 11C 50.057739 11 51.888 12.830259 51.888 15.087999L 51.888 57M 23.266001 25.312L 44.734001 25.312C 44.734001 25.312 45.756001 25.312 45.756001 26.334L 45.756001 32.468002C 45.756001 32.468002 45.756001 33.490002 44.734001 33.490002L 23.266001 33.490002C 23.266001 33.490002 22.243999 33.490002 22.243999 32.468002L 22.243999 26.334C 22.243999 26.334 22.243999 25.312 23.266001 25.312M 23.218 39.622002L 44.686001 39.622002C 44.686001 39.622002 45.708 39.622002 45.708 40.643997L 45.708 46.778C 45.708 46.778 45.708 47.799999 44.686001 47.799999L 23.218 47.799999C 23.218 47.799999 22.195999 47.799999 22.195999 46.778L 22.195999 40.643997C 22.195999 40.643997 22.195999 39.622002 23.218 39.622002M 27.422001 29.4L 30.804001 29.4M 27.422001 43.712002L 32.959999 43.712002"
               id="path47" />
          </g>
        </g>
      </g>
      <g
         id="g-root-ic_chec_18fp1jh12wevim-stroke"
         data-item-order="0"
         transform="translate(542, 134)">
        <g
           id="ic_chec_18fp1jh12wevim-stroke"
           fill="none"
           stroke-linecap="round"
           stroke-linejoin="round"
           stroke-miterlimit="4"
           stroke="#3cc583"
           stroke-width="2">
          <g
             id="g49">
            <path
               d="M 45.900002 24.400139L 21.900021 24.400139L 21.900021 56.4002L 45.900002 56.4002L 45.900002 24.400139ZM 49.900002 35.5998L 56.299999 35.5998M 49.900002 43.5998L 56.299999 43.5998M 49.900002 51.5998L 54.299999 51.5998C 55.5 51.5998 56.299999 50.799801 56.299999 49.5998L 56.299999 29.599859C 56.299999 28.39986 55.5 27.599859 54.299999 27.599859L 49.900002 27.599859M 22.900021 34.999802L 45.900002 34.999802M 22.900021 45.999802L 45.900002 45.999802M 17.899981 35.5998L 11.5 35.5998M 17.899981 43.5998L 11.5 43.5998M 17.9 51.5998L 13.5 51.5998C 12.3 51.5998 11.5 50.799801 11.5 49.5998L 11.5 29.599859C 11.5 28.39986 12.3 27.599859 13.5 27.599859L 17.9 27.599859M 10 10M 30.9 13.59986L 33.900002 16.399839L 38.900002 11.599854"
               id="path48" />
          </g>
        </g>
      </g>
      <g
         id="g-root-ic_grap_1lxearx12wevih-stroke"
         data-item-order="0"
         transform="translate(758, 134)">
        <g
           id="ic_grap_1lxearx12wevih-stroke"
           fill="none"
           stroke-linecap="round"
           stroke-linejoin="round"
           stroke-miterlimit="4"
           stroke="#1eabda"
           stroke-width="2">
          <g
             id="g50">
            <path
               d="M 14.98 30.219999C 14.899816 29.556355 14.859743 28.888474 14.860001 28.220001C 14.851564 21.009327 19.968395 14.810095 27.049921 13.451458C 34.131447 12.092822 41.179237 15.958193 43.84 22.66M 40.5 38.84L 44.84 43.18M 56 50.380001C 56.802612 51.127884 57.132996 52.254223 56.861542 53.317158C 56.590088 54.380089 55.76009 55.210087 54.697155 55.481541C 53.634224 55.752995 52.507885 55.422611 51.760002 54.620003L 44 46.84C 43.621376 46.464466 43.408401 45.953274 43.408401 45.419998C 43.408401 44.886726 43.621376 44.375534 44 44L 45.419998 42.580002C 45.795532 42.201374 46.306725 41.988403 46.84 41.988403C 47.373276 41.988403 47.884468 42.201374 48.259998 42.580002ZM 46.02 12.5L 54.02 12.5L 54.02 20.5M 44.880001 29.120001C 44.475258 35.92099 39.54364 41.597744 32.866005 42.949226C 26.188374 44.300705 19.43746 40.988373 16.42 34.880001M 54 12.5L 36.200001 30.32C 35.419926 31.095448 34.160072 31.095448 33.379997 30.32L 28.6 25.52C 27.819925 24.744553 26.560076 24.744553 25.779999 25.52L 11.1 40.200001"
               id="path49" />
          </g>
        </g>
      </g>
      <g
         id="g-root-tx_applicat_143mdxp12wdg5l-stroke"
         data-item-order="0"
         transform="translate(68, 194)" />
      <g
         id="g-root-tx_applicat_1i0b112wesjw-stroke"
         data-item-order="0"
         transform="translate(284, 194)" />
      <g
         id="g-root-tx_backenda_hyeakt12weuxb-stroke"
         data-item-order="0"
         transform="translate(506, 194)" />
      <g
         id="g-root-tx_optimisa_8ydyq512wg7b6-stroke"
         data-item-order="0"
         transform="translate(710, 194)" />
      <g
         id="g-root-tx_sitesper_qsscnh12wdekq-stroke"
         data-item-order="0"
         transform="translate(62, 278)" />
      <g
         id="g-root-tx_applicat_1lr5jwt12wetxp-stroke"
         data-item-order="0"
         transform="translate(278, 278)" />
      <g
         id="g-root-tx_services_93drf112wetc0-stroke"
         data-item-order="0"
         transform="translate(494, 278)" />
      <g
         id="g-root-tx_auditeto_1lsei3112wg9hn-stroke"
         data-item-order="0"
         transform="translate(704, 278)" />
    </g>
  </g>
</svg>
