<?xml version="1.0" encoding="UTF-8" standalone="no"?>
<svg
   width="744"
   height="522"
   viewBox="0 0 744 522"
   style="fill:none;stroke:none;fill-rule:evenodd;clip-rule:evenodd;stroke-linecap:round;stroke-linejoin:round;stroke-miterlimit:1.5;"
   version="1.1"
   id="svg99"
   sodipodi:docname="solutions_ia.svg"
   inkscape:version="1.4 (86a8ad7, 2024-10-11)"
   xmlns:inkscape="http://www.inkscape.org/namespaces/inkscape"
   xmlns:sodipodi="http://sodipodi.sourceforge.net/DTD/sodipodi-0.dtd"
   xmlns="http://www.w3.org/2000/svg"
   xmlns:svg="http://www.w3.org/2000/svg">
  <defs
     id="defs99" />
  <sodipodi:namedview
     id="namedview99"
     pagecolor="#ffffff"
     bordercolor="#000000"
     borderopacity="0.25"
     inkscape:showpageshadow="2"
     inkscape:pageopacity="0.0"
     inkscape:pagecheckerboard="0"
     inkscape:deskcolor="#d1d1d1"
     inkscape:zoom="1.545977"
     inkscape:cx="372.25651"
     inkscape:cy="467.98885"
     inkscape:window-width="1920"
     inkscape:window-height="1009"
     inkscape:window-x="-8"
     inkscape:window-y="-8"
     inkscape:window-maximized="1"
     inkscape:current-layer="svg99" />
  <style
     class="text-font-style fontImports"
     data-font-family="Roboto"
     id="style1">@import url('https://fonts.googleapis.com/css2?family=Roboto:wght@400;700&amp;display=block');</style>
  <g
     id="items"
     style="isolation: isolate">
    <g
       id="blend"
       style="mix-blend-mode: normal">
      <g
         id="g-root-cp_0_g-0_qnsgzg13gi9zj-fill"
         data-item-order="-296486"
         transform="translate(47, 86)">
        <g
           id="cp_0_g-0_qnsgzg13gi9zj-fill"
           stroke="none"
           fill="#666666">
          <g
             id="g1">
            <path
               d="M 48.5 83.5L 10 124.5L 27.5 156.5L 37 151L 23.5 125.5L 48.5 99L 48.5 83.5Z"
               id="path1" />
          </g>
        </g>
        <g
           id="g3"
           stroke="none"
           fill="#666666">
          <g
             id="g2">
            <path
               d="M 96.5 83.5L 135 124.5L 117.5 156.5L 108 151L 121.5 125.5L 96.5 99L 96.5 83.5Z"
               id="path2" />
          </g>
        </g>
        <g
           id="g5"
           stroke="none"
           fill="#666666">
          <g
             id="g4">
            <path
               d="M 59.5 106C 59.5 113.1797 65.3203 119 72.5 119C 79.6797 119 85.5 113.1797 85.5 106L 78.5 106C 78.5 109.3137 75.8137 112 72.5 112C 69.1863 112 66.5 109.3137 66.5 106L 59.5 106Z"
               id="path3" />
          </g>
        </g>
        <g
           id="g7"
           stroke="none"
           fill="#666666">
          <g
             id="g6">
            <path
               d="M 216 83.5L 177.5 124.5L 195 156.5L 204.5 151L 191 125.5L 216 99L 216 83.5Z"
               id="path5" />
          </g>
        </g>
        <g
           id="g9"
           stroke="none"
           fill="#666666">
          <g
             id="g8">
            <path
               d="M 264 83.5L 302.5 124.5L 285 156.5L 275.5 151L 289 125.5L 264 99L 264 83.5Z"
               id="path7" />
          </g>
        </g>
        <g
           id="g11"
           stroke="none"
           fill="#666666">
          <g
             id="g10">
            <path
               d="M 227 106C 227 113.1797 232.8203 119 240 119C 247.1797 119 253 113.1797 253 106L 246 106C 246 109.3137 243.3137 112 240 112C 236.6863 112 234 109.3137 234 106L 227 106Z"
               id="path9" />
          </g>
        </g>
        <g
           id="g13"
           stroke="none"
           fill="#666666">
          <g
             id="g12">
            <path
               d="M 383.5 83.5L 345 124.5L 362.5 156.5L 372 151L 358.5 125.5L 383.5 99L 383.5 83.5Z"
               id="path11" />
          </g>
        </g>
        <g
           id="g15"
           stroke="none"
           fill="#666666">
          <g
             id="g14">
            <path
               d="M 431.5 83.5L 470 124.5L 452.5 156.5L 443 151L 456.5 125.5L 431.5 99L 431.5 83.5Z"
               id="path13" />
          </g>
        </g>
        <g
           id="g17"
           stroke="none"
           fill="#666666">
          <g
             id="g16">
            <path
               d="M 394.5 106C 394.5 113.1797 400.3203 119 407.5 119C 414.6797 119 420.5 113.1797 420.5 106L 413.5 106C 413.5 109.3137 410.8137 112 407.5 112C 404.1863 112 401.5 109.3137 401.5 106L 394.5 106Z"
               id="path15" />
          </g>
        </g>
        <g
           id="g19"
           stroke="none"
           fill="#666666">
          <g
             id="g18">
            <path
               d="M 551 83.5L 512.5 124.5L 530 156.5L 539.5 151L 526 125.5L 551 99L 551 83.5Z"
               id="path17" />
          </g>
        </g>
        <g
           id="g21"
           stroke="none"
           fill="#666666">
          <g
             id="g20">
            <path
               d="M 599 83.5L 637.5 124.5L 620 156.5L 610.5 151L 624 125.5L 599 99L 599 83.5Z"
               id="path19" />
          </g>
        </g>
        <g
           id="g23"
           stroke="none"
           fill="#666666">
          <g
             id="g22">
            <path
               d="M 562 106C 562 113.1797 567.8203 119 575 119C 582.1797 119 588 113.1797 588 106L 581 106C 581 109.3137 578.3137 112 575 112C 571.6863 112 569 109.3137 569 106L 562 106Z"
               id="path21" />
          </g>
        </g>
      </g>
      <g
         id="g-root-cp_1_g-1_dcyfp813gi96s-fill"
         data-item-order="-296452"
         transform="translate(73.5, 110)">
        <g
           id="cp_1_g-1_dcyfp813gi96s-fill"
           stroke="none"
           fill="#4e88e7">
          <g
             id="g24">
            <path
               d="M 22 10L 70 10L 70 82L 22 82ZM 10 136C 10 155.882251 26.117749 172 46 172C 65.882251 172 82 155.882251 82 136C 82 116.117749 65.882251 100 46 100C 26.117749 100 10 116.117749 10 136"
               id="path23" />
          </g>
        </g>
        <g
           id="g26"
           stroke="none"
           fill="#4e88e7">
          <g
             id="g25">
            <path
               d="M 40 82C 40 85.3137 42.6863 88 46 88C 49.3137 88 52 85.3137 52 82L 40 82Z"
               id="path24" />
          </g>
        </g>
      </g>
      <g
         id="g-root-cp_2_g-2_4hbfgc13gi9zi-fill"
         data-item-order="-296444"
         transform="translate(241, 110)">
        <g
           id="cp_2_g-2_4hbfgc13gi9zi-fill"
           stroke="none"
           fill="#1eabda">
          <g
             id="g27">
            <path
               d="M 22 10L 70 10L 70 82L 22 82ZM 10 136C 10 155.882251 26.117749 172 46 172C 65.882251 172 82 155.882251 82 136C 82 116.117749 65.882251 100 46 100C 26.117749 100 10 116.117749 10 136"
               id="path26" />
          </g>
        </g>
        <g
           id="g29"
           stroke="none"
           fill="#1eabda">
          <g
             id="g28">
            <path
               d="M 40 82C 40 85.3137 42.6863 88 46 88C 49.3137 88 52 85.3137 52 82L 40 82Z"
               id="path27" />
          </g>
        </g>
      </g>
      <g
         id="g-root-cp_3_g-3_24ef013gi7m0-fill"
         data-item-order="-296436"
         transform="translate(408.5, 110)">
        <g
           id="cp_3_g-3_24ef013gi7m0-fill"
           stroke="none"
           fill="#3cc583">
          <g
             id="g30">
            <path
               d="M 22 10L 70 10L 70 82L 22 82ZM 10 136C 10 155.882251 26.117749 172 46 172C 65.882251 172 82 155.882251 82 136C 82 116.117749 65.882251 100 46 100C 26.117749 100 10 116.117749 10 136"
               id="path29" />
          </g>
        </g>
        <g
           id="g32"
           stroke="none"
           fill="#3cc583">
          <g
             id="g31">
            <path
               d="M 40 82C 40 85.3137 42.6863 88 46 88C 49.3137 88 52 85.3137 52 82L 40 82Z"
               id="path30" />
          </g>
        </g>
      </g>
      <g
         id="g-root-cp_4_g-4_1lrry0s13gi8zu-fill"
         data-item-order="-296428"
         transform="translate(576, 110)">
        <g
           id="cp_4_g-4_1lrry0s13gi8zu-fill"
           stroke="none"
           fill="#de8431">
          <g
             id="g33">
            <path
               d="M 22 10L 70 10L 70 82L 22 82ZM 10 136C 10 155.882251 26.117749 172 46 172C 65.882251 172 82 155.882251 82 136C 82 116.117749 65.882251 100 46 100C 26.117749 100 10 116.117749 10 136"
               id="path32" />
          </g>
        </g>
        <g
           id="g35"
           stroke="none"
           fill="#de8431">
          <g
             id="g34">
            <path
               d="M 40 82C 40 85.3137 42.6863 88 46 88C 49.3137 88 52 85.3137 52 82L 40 82Z"
               id="path33" />
          </g>
        </g>
      </g>
      <g
         id="g-root-tx_solution_18gxwqk13gi7f0-fill"
         data-item-order="0"
         transform="translate(206, 38)">
        <g
           id="tx_solution_18gxwqk13gi7f0-fill"
           stroke="none"
           fill="#484848">
          <g
             id="g36">
            <text
               style="font: 20px Roboto, sans-serif; white-space: pre;"
               font-size="20px"
               font-family="Roboto, sans-serif"
               id="text35"><tspan
                 x="16.35"
                 y="34"
                 dominant-baseline="ideographic"
                 id="tspan35">Solutions d'Intelligence Artificielle</tspan></text>
          </g>
        </g>
      </g>
      <g
         id="g-root-ic_2_v5hed813gi8zx-fill"
         data-item-order="0"
         transform="translate(85.5, 212)" />
      <g
         id="g-root-ic_spee_1lwrqpo13gjlse-fill"
         data-item-order="0"
         transform="translate(253.5, 212)" />
      <g
         id="g-root-ic_view_v4uxa413gl2xb-fill"
         data-item-order="0"
         transform="translate(421.5, 212)" />
      <g
         id="g-root-ic_line_7qo7013gl348-fill"
         data-item-order="0"
         transform="translate(589.5, 212)" />
      <g
         id="g-root-tx_analysep_4kfsvw13gmfbd-fill"
         data-item-order="0"
         transform="translate(62, 284)">
        <g
           id="tx_analysep_4kfsvw13gmfbd-fill"
           stroke="none"
           fill="#4e88e7">
          <g
             id="g37">
            <text
               style="font: bold 20px Roboto, sans-serif; white-space: pre;"
               font-weight="bold"
               font-size="20px"
               font-family="Roboto, sans-serif"
               id="text37"><tspan
                 x="22.26"
                 y="34"
                 dominant-baseline="ideographic"
                 id="tspan36">Analyse </tspan><tspan
                 x="12.66"
                 y="58"
                 dominant-baseline="ideographic"
                 id="tspan37">Prédictive</tspan></text>
          </g>
        </g>
      </g>
      <g
         id="g-root-tx_chatbots_18jft3013gmfwj-fill"
         data-item-order="0"
         transform="translate(212, 284)">
        <g
           id="tx_chatbots_18jft3013gmfwj-fill"
           stroke="none"
           fill="#1eabda">
          <g
             id="g39">
            <text
               style="font: bold 20px Roboto, sans-serif; white-space: pre;"
               font-weight="bold"
               font-size="20px"
               font-family="Roboto, sans-serif"
               id="text39"><tspan
                 x="26.27"
                 y="34"
                 dominant-baseline="ideographic"
                 id="tspan38">Chatbots &amp; </tspan><tspan
                 x="16.14"
                 y="58"
                 dominant-baseline="ideographic"
                 id="tspan39">Assistants IA</tspan></text>
          </g>
        </g>
      </g>
      <g
         id="g-root-tx_computer_hx59fg13gmfwl-fill"
         data-item-order="0"
         transform="translate(392, 284)">
        <g
           id="tx_computer_hx59fg13gmfwl-fill"
           stroke="none"
           fill="#3cc583">
          <g
             id="g41">
            <text
               style="font: bold 20px Roboto, sans-serif; white-space: pre;"
               font-weight="bold"
               font-size="20px"
               font-family="Roboto, sans-serif"
               id="text41"><tspan
                 x="16.98"
                 y="34"
                 dominant-baseline="ideographic"
                 id="tspan40">Computer </tspan><tspan
                 x="33.3"
                 y="58"
                 dominant-baseline="ideographic"
                 id="tspan41">Vision</tspan></text>
          </g>
        </g>
      </g>
      <g
         id="g-root-tx_iapourlo_1d0i9do13gmhaf-fill"
         data-item-order="0"
         transform="translate(548, 284)">
        <g
           id="tx_iapourlo_1d0i9do13gmhaf-fill"
           stroke="none"
           fill="#de8431">
          <g
             id="g43">
            <text
               style="font: bold 20px Roboto, sans-serif; white-space: pre;"
               font-weight="bold"
               font-size="20px"
               font-family="Roboto, sans-serif"
               id="text43"><tspan
                 x="43.25"
                 y="34"
                 dominant-baseline="ideographic"
                 id="tspan42">IA pour </tspan><tspan
                 x="14.11"
                 y="58"
                 dominant-baseline="ideographic"
                 id="tspan43">l'Optimisation</tspan></text>
          </g>
        </g>
      </g>
      <g
         id="g-root-tx_prdictio_1lu9ud813gmhhe-fill"
         data-item-order="0"
         transform="translate(44, 344)">
        <g
           id="tx_prdictio_1lu9ud813gmhhe-fill"
           stroke="none"
           fill="#3a4455">
          <g
             id="g47">
            <text
               style="font: 15px Roboto, sans-serif; white-space: pre;"
               font-size="15px"
               font-family="Roboto, sans-serif"
               id="text47"><tspan
                 x="28.14"
                 y="28"
                 dominant-baseline="ideographic"
                 id="tspan44">Prédiction des </tspan><tspan
                 x="32.84"
                 y="46"
                 dominant-baseline="ideographic"
                 id="tspan45">tendances et </tspan><tspan
                 x="20.17"
                 y="64"
                 dominant-baseline="ideographic"
                 id="tspan46">optimisation des </tspan><tspan
                 x="16.58"
                 y="82"
                 dominant-baseline="ideographic"
                 id="tspan47">processus métier.</tspan></text>
          </g>
        </g>
      </g>
      <g
         id="g-root-tx_lesassis_v7zapo13gmhhg-fill"
         data-item-order="0"
         transform="translate(218, 344)">
        <g
           id="tx_lesassis_v7zapo13gmhhg-fill"
           stroke="none"
           fill="#32444a">
          <g
             id="g51">
            <text
               style="font: 15px Roboto, sans-serif; white-space: pre;"
               font-size="15px"
               font-family="Roboto, sans-serif"
               id="text51"><tspan
                 x="19.88"
                 y="28"
                 dominant-baseline="ideographic"
                 id="tspan48">Les assistants </tspan><tspan
                 x="43.69"
                 y="46"
                 dominant-baseline="ideographic"
                 id="tspan49">virtuels </tspan><tspan
                 x="16.22"
                 y="64"
                 dominant-baseline="ideographic"
                 id="tspan50">automatisent le </tspan><tspan
                 x="20.27"
                 y="82"
                 dominant-baseline="ideographic"
                 id="tspan51">support client.</tspan></text>
          </g>
        </g>
      </g>
      <g
         id="g-root-tx_lareconn_4lor2413gmhhi-fill"
         data-item-order="0"
         transform="translate(368, 344)">
        <g
           id="tx_lareconn_4lor2413gmhhi-fill"
           stroke="none"
           fill="#374840">
          <g
             id="g55">
            <text
               style="font: 15px Roboto, sans-serif; white-space: pre;"
               font-size="15px"
               font-family="Roboto, sans-serif"
               id="text55"><tspan
                 x="24.37"
                 y="28"
                 dominant-baseline="ideographic"
                 id="tspan52">La reconnaissance </tspan><tspan
                 x="17.45"
                 y="46"
                 dominant-baseline="ideographic"
                 id="tspan53">d'images automatise </tspan><tspan
                 x="40.91"
                 y="64"
                 dominant-baseline="ideographic"
                 id="tspan54">les processus </tspan><tspan
                 x="44.88"
                 y="82"
                 dominant-baseline="ideographic"
                 id="tspan55">d'inspection.</tspan></text>
          </g>
        </g>
      </g>
      <g
         id="g-root-tx_optimise_zpo83g13gmfpk-fill"
         data-item-order="0"
         transform="translate(554, 344)">
        <g
           id="tx_optimise_zpo83g13gmfpk-fill"
           stroke="none"
           fill="#4c4034">
          <g
             id="g60">
            <text
               style="font: 15px Roboto, sans-serif; white-space: pre;"
               font-size="15px"
               font-family="Roboto, sans-serif"
               id="text60"><tspan
                 x="24.15"
                 y="31"
                 dominant-baseline="ideographic"
                 id="tspan56">Optimiser les </tspan><tspan
                 x="22.99"
                 y="49"
                 dominant-baseline="ideographic"
                 id="tspan57">ressources et </tspan><tspan
                 x="16.4"
                 y="67"
                 dominant-baseline="ideographic"
                 id="tspan58">automatiser les </tspan><tspan
                 x="36.18"
                 y="85"
                 dominant-baseline="ideographic"
                 id="tspan59">décisions </tspan><tspan
                 x="29.87"
                 y="103"
                 dominant-baseline="ideographic"
                 id="tspan60">complexes.</tspan></text>
          </g>
        </g>
      </g>
      <g
         id="g-root-cp_0_g-0_qnsgzg13gi9zj-stroke"
         data-item-order="-296486"
         transform="translate(47, 86)">
        <g
           id="cp_0_g-0_qnsgzg13gi9zj-stroke"
           fill="none"
           stroke-linecap="round"
           stroke-linejoin="round"
           stroke-miterlimit="4"
           stroke="#484848"
           stroke-width="2">
          <g
             id="g61">
            <path
               d="M 48.5 83.5L 10 124.5L 27.5 156.5L 37 151L 23.5 125.5L 48.5 99L 48.5 83.5Z"
               id="path60" />
          </g>
        </g>
        <g
           id="g63"
           fill="none"
           stroke-linecap="round"
           stroke-linejoin="round"
           stroke-miterlimit="4"
           stroke="#484848"
           stroke-width="2">
          <g
             id="g62">
            <path
               d="M 96.5 83.5L 135 124.5L 117.5 156.5L 108 151L 121.5 125.5L 96.5 99L 96.5 83.5Z"
               id="path61" />
          </g>
        </g>
        <g
           id="g65"
           fill="none"
           stroke-linecap="round"
           stroke-linejoin="round"
           stroke-miterlimit="4"
           stroke="#484848"
           stroke-width="2">
          <g
             id="g64">
            <path
               d="M 59.5 106C 59.5 113.1797 65.3203 119 72.5 119C 79.6797 119 85.5 113.1797 85.5 106L 78.5 106C 78.5 109.3137 75.8137 112 72.5 112C 69.1863 112 66.5 109.3137 66.5 106L 59.5 106ZM 72.5 34L 72.5 10"
               id="path63" />
          </g>
        </g>
        <g
           id="g67"
           fill="none"
           stroke-linecap="round"
           stroke-linejoin="round"
           stroke-miterlimit="4"
           stroke="#484848"
           stroke-width="2">
          <g
             id="g66">
            <path
               d="M 216 83.5L 177.5 124.5L 195 156.5L 204.5 151L 191 125.5L 216 99L 216 83.5Z"
               id="path65" />
          </g>
        </g>
        <g
           id="g69"
           fill="none"
           stroke-linecap="round"
           stroke-linejoin="round"
           stroke-miterlimit="4"
           stroke="#484848"
           stroke-width="2">
          <g
             id="g68">
            <path
               d="M 264 83.5L 302.5 124.5L 285 156.5L 275.5 151L 289 125.5L 264 99L 264 83.5Z"
               id="path67" />
          </g>
        </g>
        <g
           id="g71"
           fill="none"
           stroke-linecap="round"
           stroke-linejoin="round"
           stroke-miterlimit="4"
           stroke="#484848"
           stroke-width="2">
          <g
             id="g70">
            <path
               d="M 227 106C 227 113.1797 232.8203 119 240 119C 247.1797 119 253 113.1797 253 106L 246 106C 246 109.3137 243.3137 112 240 112C 236.6863 112 234 109.3137 234 106L 227 106ZM 240 34L 240 10"
               id="path69" />
          </g>
        </g>
        <g
           id="g73"
           fill="none"
           stroke-linecap="round"
           stroke-linejoin="round"
           stroke-miterlimit="4"
           stroke="#484848"
           stroke-width="2">
          <g
             id="g72">
            <path
               d="M 383.5 83.5L 345 124.5L 362.5 156.5L 372 151L 358.5 125.5L 383.5 99L 383.5 83.5Z"
               id="path71" />
          </g>
        </g>
        <g
           id="g75"
           fill="none"
           stroke-linecap="round"
           stroke-linejoin="round"
           stroke-miterlimit="4"
           stroke="#484848"
           stroke-width="2">
          <g
             id="g74">
            <path
               d="M 431.5 83.5L 470 124.5L 452.5 156.5L 443 151L 456.5 125.5L 431.5 99L 431.5 83.5Z"
               id="path73" />
          </g>
        </g>
        <g
           id="g77"
           fill="none"
           stroke-linecap="round"
           stroke-linejoin="round"
           stroke-miterlimit="4"
           stroke="#484848"
           stroke-width="2">
          <g
             id="g76">
            <path
               d="M 394.5 106C 394.5 113.1797 400.3203 119 407.5 119C 414.6797 119 420.5 113.1797 420.5 106L 413.5 106C 413.5 109.3137 410.8137 112 407.5 112C 404.1863 112 401.5 109.3137 401.5 106L 394.5 106Z"
               id="path75" />
          </g>
        </g>
        <g
           id="g79"
           fill="none"
           stroke-linecap="round"
           stroke-linejoin="round"
           stroke-miterlimit="4"
           stroke="#484848"
           stroke-width="2">
          <g
             id="g78">
            <path
               d="M 551 83.5L 512.5 124.5L 530 156.5L 539.5 151L 526 125.5L 551 99L 551 83.5Z"
               id="path77" />
          </g>
        </g>
        <g
           id="g81"
           fill="none"
           stroke-linecap="round"
           stroke-linejoin="round"
           stroke-miterlimit="4"
           stroke="#484848"
           stroke-width="2">
          <g
             id="g80">
            <path
               d="M 599 83.5L 637.5 124.5L 620 156.5L 610.5 151L 624 125.5L 599 99L 599 83.5Z"
               id="path79" />
          </g>
        </g>
        <g
           id="g83"
           fill="none"
           stroke-linecap="round"
           stroke-linejoin="round"
           stroke-miterlimit="4"
           stroke="#484848"
           stroke-width="2">
          <g
             id="g82">
            <path
               d="M 562 106C 562 113.1797 567.8203 119 575 119C 582.1797 119 588 113.1797 588 106L 581 106C 581 109.3137 578.3137 112 575 112C 571.6863 112 569 109.3137 569 106L 562 106ZM 407.5 34L 407.5 10M 575 34L 575 10"
               id="path81" />
          </g>
        </g>
      </g>
      <g
         id="g-root-cp_1_g-1_dcyfp813gi96s-stroke"
         data-item-order="-296452"
         transform="translate(73.5, 110)">
        <g
           id="cp_1_g-1_dcyfp813gi96s-stroke"
           fill="none"
           stroke-linecap="round"
           stroke-linejoin="round"
           stroke-miterlimit="4"
           stroke="#ffffff"
           stroke-width="2">
          <g
             id="g84">
            <path
               d="M 22 10L 70 10L 70 82L 22 82ZM 10 136C 10 155.882251 26.117749 172 46 172C 65.882251 172 82 155.882251 82 136C 82 116.117749 65.882251 100 46 100C 26.117749 100 10 116.117749 10 136"
               id="path83" />
          </g>
        </g>
        <g
           id="g86"
           fill="none"
           stroke-linecap="round"
           stroke-linejoin="round"
           stroke-miterlimit="4"
           stroke="#ffffff"
           stroke-width="2">
          <g
             id="g85">
            <path
               d="M 40 82C 40 85.3137 42.6863 88 46 88C 49.3137 88 52 85.3137 52 82L 40 82Z"
               id="path84" />
          </g>
        </g>
      </g>
      <g
         id="g-root-cp_2_g-2_4hbfgc13gi9zi-stroke"
         data-item-order="-296444"
         transform="translate(241, 110)">
        <g
           id="cp_2_g-2_4hbfgc13gi9zi-stroke"
           fill="none"
           stroke-linecap="round"
           stroke-linejoin="round"
           stroke-miterlimit="4"
           stroke="#ffffff"
           stroke-width="2">
          <g
             id="g87">
            <path
               d="M 22 10L 70 10L 70 82L 22 82ZM 10 136C 10 155.882251 26.117749 172 46 172C 65.882251 172 82 155.882251 82 136C 82 116.117749 65.882251 100 46 100C 26.117749 100 10 116.117749 10 136"
               id="path86" />
          </g>
        </g>
        <g
           id="g89"
           fill="none"
           stroke-linecap="round"
           stroke-linejoin="round"
           stroke-miterlimit="4"
           stroke="#ffffff"
           stroke-width="2">
          <g
             id="g88">
            <path
               d="M 40 82C 40 85.3137 42.6863 88 46 88C 49.3137 88 52 85.3137 52 82L 40 82Z"
               id="path87" />
          </g>
        </g>
      </g>
      <g
         id="g-root-cp_3_g-3_24ef013gi7m0-stroke"
         data-item-order="-296436"
         transform="translate(408.5, 110)">
        <g
           id="cp_3_g-3_24ef013gi7m0-stroke"
           fill="none"
           stroke-linecap="round"
           stroke-linejoin="round"
           stroke-miterlimit="4"
           stroke="#ffffff"
           stroke-width="2">
          <g
             id="g90">
            <path
               d="M 22 10L 70 10L 70 82L 22 82ZM 10 136C 10 155.882251 26.117749 172 46 172C 65.882251 172 82 155.882251 82 136C 82 116.117749 65.882251 100 46 100C 26.117749 100 10 116.117749 10 136"
               id="path89" />
          </g>
        </g>
        <g
           id="g92"
           fill="none"
           stroke-linecap="round"
           stroke-linejoin="round"
           stroke-miterlimit="4"
           stroke="#ffffff"
           stroke-width="2">
          <g
             id="g91">
            <path
               d="M 40 82C 40 85.3137 42.6863 88 46 88C 49.3137 88 52 85.3137 52 82L 40 82Z"
               id="path90" />
          </g>
        </g>
      </g>
      <g
         id="g-root-cp_4_g-4_1lrry0s13gi8zu-stroke"
         data-item-order="-296428"
         transform="translate(576, 110)">
        <g
           id="cp_4_g-4_1lrry0s13gi8zu-stroke"
           fill="none"
           stroke-linecap="round"
           stroke-linejoin="round"
           stroke-miterlimit="4"
           stroke="#ffffff"
           stroke-width="2">
          <g
             id="g93">
            <path
               d="M 22 10L 70 10L 70 82L 22 82ZM 10 136C 10 155.882251 26.117749 172 46 172C 65.882251 172 82 155.882251 82 136C 82 116.117749 65.882251 100 46 100C 26.117749 100 10 116.117749 10 136"
               id="path92" />
          </g>
        </g>
        <g
           id="g95"
           fill="none"
           stroke-linecap="round"
           stroke-linejoin="round"
           stroke-miterlimit="4"
           stroke="#ffffff"
           stroke-width="2">
          <g
             id="g94">
            <path
               d="M 40 82C 40 85.3137 42.6863 88 46 88C 49.3137 88 52 85.3137 52 82L 40 82Z"
               id="path93" />
          </g>
        </g>
      </g>
      <g
         id="g-root-tx_solution_18gxwqk13gi7f0-stroke"
         data-item-order="0"
         transform="translate(206, 38)" />
      <g
         id="g-root-ic_2_v5hed813gi8zx-stroke"
         data-item-order="0"
         transform="translate(85.5, 212)">
        <g
           id="ic_2_v5hed813gi8zx-stroke"
           fill="none"
           stroke-linecap="round"
           stroke-linejoin="round"
           stroke-miterlimit="4"
           stroke="#ffffff"
           stroke-width="2">
          <g
             id="g96">
            <path
               d="M 36 39L 55 39C 56.104568 39 57 38.104568 57 37L 57 13C 57 11.895431 56.104568 11 55 11L 31 11M 47 18L 51 18L 51 32L 47 32ZM 39 22L 43 22L 43 32L 39 32ZM 15 18C 15 21.865993 18.134007 25 22 25C 25.865993 25 29 21.865993 29 18C 29 14.134007 25.865993 11 22 11C 18.134007 11 15 14.134007 15 18ZM 15.094 19.153999C 17.749018 19.124155 20.263666 17.95677 22 15.948C 23.736818 17.954229 26.250574 19.119354 28.903999 19.147999M 26.434 29.43L 22 36.412003L 17.604 29.402M 22 28C 25.520664 27.996502 28.582836 30.41148 29.4 33.835999L 33 47L 27.086 47L 24.978001 57L 18.978001 57L 16.869999 47L 11 47L 14.610001 33.835999C 15.426298 30.415115 18.48307 28.001133 22 28Z"
               id="path95" />
          </g>
        </g>
      </g>
      <g
         id="g-root-ic_spee_1lwrqpo13gjlse-stroke"
         data-item-order="0"
         transform="translate(253.5, 212)">
        <g
           id="ic_spee_1lwrqpo13gjlse-stroke"
           fill="none"
           stroke-linecap="round"
           stroke-linejoin="round"
           stroke-miterlimit="4"
           stroke="#ffffff"
           stroke-width="2">
          <g
             id="g97">
            <path
               d="M 26.83 23L 26.83 13.308001C 26.83 12.033327 27.863327 11 29.138 11L 54.521999 11C 55.796673 11 56.830002 12.033327 56.830002 13.308001L 56.830002 30.691999C 56.830002 31.966673 55.796673 33 54.521999 33L 43.560001 33L 34.905998 39L 34.905998 33L 31.138 33M 32.905998 17L 50.751999 17M 32.905998 22L 50.751999 22M 32.905998 27L 44.138 27M 34.742001 54.858002C 34.740898 56.040539 33.782539 56.998898 32.599998 57L 13.314 57C 12.130682 57 11.171103 56.041317 11.17 54.858002L 11.17 49.5C 11.17 42.990772 16.446772 37.714001 22.956001 37.714001C 29.465229 37.714001 34.742001 42.990772 34.742001 49.5ZM 18.456001 45C 18.456001 45.276142 18.679857 45.5 18.956001 45.5C 19.232143 45.5 19.456001 45.276142 19.456001 45C 19.456001 44.723858 19.232143 44.5 18.956001 44.5C 18.679857 44.5 18.456001 44.723858 18.456001 45M 26.455999 44.987999C 26.455999 45.264141 26.679857 45.487999 26.955999 45.487999C 27.232141 45.487999 27.455999 45.264141 27.455999 44.987999C 27.455999 44.711857 27.232141 44.487999 26.955999 44.487999C 26.679857 44.487999 26.455999 44.711857 26.455999 44.987999M 22.956001 37.714001L 22.956001 33.428001M 19.742001 30.214001C 19.742001 31.989044 21.180958 33.428001 22.956001 33.428001C 24.731045 33.428001 26.17 31.989044 26.17 30.214001C 26.17 28.438957 24.731045 27 22.956001 27C 21.180958 27 19.742001 28.438957 19.742001 30.214001M 11.17 51.630001L 34.742001 51.630001"
               id="path96" />
          </g>
        </g>
      </g>
      <g
         id="g-root-ic_view_v4uxa413gl2xb-stroke"
         data-item-order="0"
         transform="translate(421.5, 212)">
        <g
           id="ic_view_v4uxa413gl2xb-stroke"
           fill="none"
           stroke-linecap="round"
           stroke-linejoin="round"
           stroke-miterlimit="4"
           stroke="#ffffff"
           stroke-width="2">
          <g
             id="g98">
            <path
               d="M 34.652 54.778C 34.650898 55.960537 33.692535 56.9189 32.510002 56.920002L 13.224 56.919998C 12.040682 56.920002 11.081104 55.961319 11.08 54.778L 11.08 49.419998C 11.08 42.910774 16.356773 37.634003 22.866001 37.634003C 29.375229 37.634003 34.652 42.910774 34.652 49.420002ZM 18.366001 44.919998C 18.366001 45.196144 18.589859 45.419998 18.866001 45.419998C 19.142143 45.419998 19.366001 45.196144 19.366001 44.919998C 19.366001 44.643856 19.142143 44.419998 18.866001 44.419998C 18.589859 44.419998 18.366001 44.643856 18.366001 44.919998M 26.365999 44.908001C 26.365999 45.184143 26.589857 45.408001 26.865999 45.408001C 27.142143 45.408001 27.365999 45.184143 27.365999 44.908001C 27.365999 44.631859 27.142143 44.408001 26.865999 44.408001C 26.589857 44.408001 26.365999 44.631859 26.365999 44.908001M 22.866001 37.634003L 22.866001 33.348M 19.652 30.134001C 19.652 31.909044 21.090958 33.348 22.866001 33.348C 24.641045 33.348 26.08 31.909044 26.08 30.134001C 26.08 28.358957 24.641045 26.92 22.866001 26.92C 21.090958 26.92 19.652 28.358957 19.652 30.134001M 11.08 51.549999L 34.652 51.549999M 56.919998 19.76C 54.231098 25.077831 48.778988 28.430485 42.82 28.430485C 36.861015 28.430485 31.408905 25.077831 28.720001 19.76C 31.406971 14.436721 36.862022 11.079618 42.825001 11.079618C 48.787979 11.079618 54.243031 14.436721 56.93 19.76ZM 38.475998 19.76C 38.476002 22.156918 40.419083 24.1 42.816002 24.1C 45.212917 24.1 47.156002 22.156918 47.156002 19.76C 47.156002 17.363085 45.212917 15.42 42.816002 15.42C 40.419083 15.42 38.476002 17.363085 38.476002 19.76"
               id="path97" />
          </g>
        </g>
      </g>
      <g
         id="g-root-ic_line_7qo7013gl348-stroke"
         data-item-order="0"
         transform="translate(589.5, 212)">
        <g
           id="ic_line_7qo7013gl348-stroke"
           fill="none"
           stroke-linecap="round"
           stroke-linejoin="round"
           stroke-miterlimit="4"
           stroke="#ffffff"
           stroke-width="2">
          <g
             id="g99">
            <path
               d="M 19.858 33.945999C 19.858002 41.677986 26.126015 47.946003 33.858002 47.946003C 41.589989 47.946003 47.858002 41.677986 47.858002 33.945999C 47.858002 26.214014 41.589989 19.946001 33.858002 19.946001C 26.126015 19.946001 19.858002 26.214014 19.858002 33.945999ZM 23.858 37.945999L 25.304001 35.778C 25.610107 35.31871 26.23045 35.194286 26.690001 35.5L 28.110001 36.445999C 28.537424 36.728256 29.109018 36.641911 29.434 36.246002L 33.155998 31.775999C 33.336006 31.560066 33.598595 31.429876 33.879436 31.417318C 34.160278 31.40476 34.433437 31.510996 34.632 31.709999L 37.084 34.162003C 37.282776 34.360092 37.555641 34.465549 37.835976 34.452618C 38.11631 34.439686 38.378307 34.309555 38.557999 34.094002L 42.858002 28.936001M 56.124001 37.110001C 56.627377 37.047112 57.003914 36.617275 57 36.110001L 57 31.882C 57.003914 31.374725 56.627377 30.944889 56.124001 30.882L 51.622002 30.32C 51.163094 28.115004 50.291088 26.016758 49.051998 24.136L 51.841999 20.546C 52.151066 20.148159 52.115929 19.582531 51.759998 19.226L 48.759998 16.226C 48.403469 15.870071 47.837841 15.834933 47.439999 16.144001L 43.849998 18.944C 41.968914 17.705101 39.870834 16.832485 37.666 16.372L 37.110001 11.876C 37.047112 11.372623 36.617275 10.996087 36.110001 11L 31.882 11C 31.374725 10.996087 30.944889 11.372623 30.882 11.876L 30.32 16.375999C 28.117947 16.837442 26.022665 17.710024 24.144001 18.948L 20.554001 16.158001C 20.15616 15.848933 19.59053 15.884071 19.234001 16.24L 16.234001 19.24C 15.878071 19.596531 15.842934 20.162159 16.152 20.560001L 18.952 24.16C 17.71291 26.040758 16.840904 28.139004 16.382 30.344L 11.88 30.906C 11.376624 30.968889 11.000087 31.398726 11.004 31.906L 11.004 36.141998C 11.000087 36.649277 11.376624 37.079109 11.88 37.141998L 16.382 37.704002C 16.840904 39.908997 17.71291 42.00724 18.952 43.887997L 16.158001 47.445999C 15.848933 47.843842 15.884071 48.40947 16.24 48.765999L 19.24 51.765999C 19.596531 52.121929 20.162159 52.157066 20.560001 51.848L 24.16 49.057999C 26.041086 50.296898 28.139162 51.169514 30.344 51.629997L 30.906 56.130001C 30.968889 56.633377 31.398726 57.009914 31.906 57.006001L 36.141998 57.006001C 36.649277 57.009914 37.079109 56.633377 37.141998 56.130001L 37.704002 51.630001C 39.908836 51.169514 42.006912 50.296898 43.888 49.057999L 47.478001 51.848C 47.875839 52.157066 48.441471 52.121929 48.798 51.765999L 51.798 48.765999C 52.153931 48.40947 52.189068 47.843842 51.880001 47.445999L 49.09 43.855999C 50.329086 41.975239 51.201096 39.876995 51.66 37.671997Z"
               id="path98" />
          </g>
        </g>
      </g>
      <g
         id="g-root-tx_analysep_4kfsvw13gmfbd-stroke"
         data-item-order="0"
         transform="translate(62, 284)" />
      <g
         id="g-root-tx_chatbots_18jft3013gmfwj-stroke"
         data-item-order="0"
         transform="translate(212, 284)" />
      <g
         id="g-root-tx_computer_hx59fg13gmfwl-stroke"
         data-item-order="0"
         transform="translate(392, 284)" />
      <g
         id="g-root-tx_iapourlo_1d0i9do13gmhaf-stroke"
         data-item-order="0"
         transform="translate(548, 284)" />
      <g
         id="g-root-tx_prdictio_1lu9ud813gmhhe-stroke"
         data-item-order="0"
         transform="translate(44, 344)" />
      <g
         id="g-root-tx_lesassis_v7zapo13gmhhg-stroke"
         data-item-order="0"
         transform="translate(218, 344)" />
      <g
         id="g-root-tx_lareconn_4lor2413gmhhi-stroke"
         data-item-order="0"
         transform="translate(368, 344)" />
      <g
         id="g-root-tx_optimise_zpo83g13gmfpk-stroke"
         data-item-order="0"
         transform="translate(554, 344)" />
    </g>
  </g>
</svg>
